<svg width="25" height="26" viewBox="0 0 25 26" fill="none" xmlns="http://www.w3.org/2000/svg">
<path d="M20.3125 3.625H17.9688V2.84375C17.9688 2.63655 17.8864 2.43784 17.7399 2.29132C17.5934 2.14481 17.3947 2.0625 17.1875 2.0625C16.9803 2.0625 16.7816 2.14481 16.6351 2.29132C16.4886 2.43784 16.4062 2.63655 16.4062 2.84375V3.625H8.59375V2.84375C8.59375 2.63655 8.51144 2.43784 8.36493 2.29132C8.21841 2.14481 8.0197 2.0625 7.8125 2.0625C7.6053 2.0625 7.40659 2.14481 7.26007 2.29132C7.11356 2.43784 7.03125 2.63655 7.03125 2.84375V3.625H4.6875C4.2731 3.625 3.87567 3.78962 3.58265 4.08265C3.28962 4.37567 3.125 4.7731 3.125 5.1875V20.8125C3.125 21.2269 3.28962 21.6243 3.58265 21.9174C3.87567 22.2104 4.2731 22.375 4.6875 22.375H20.3125C20.7269 22.375 21.1243 22.2104 21.4174 21.9174C21.7104 21.6243 21.875 21.2269 21.875 20.8125V5.1875C21.875 4.7731 21.7104 4.37567 21.4174 4.08265C21.1243 3.78962 20.7269 3.625 20.3125 3.625ZM7.03125 5.1875V5.96875C7.03125 6.17595 7.11356 6.37466 7.26007 6.52118C7.40659 6.66769 7.6053 6.75 7.8125 6.75C8.0197 6.75 8.21841 6.66769 8.36493 6.52118C8.51144 6.37466 8.59375 6.17595 8.59375 5.96875V5.1875H16.4062V5.96875C16.4062 6.17595 16.4886 6.37466 16.6351 6.52118C16.7816 6.66769 16.9803 6.75 17.1875 6.75C17.3947 6.75 17.5934 6.66769 17.7399 6.52118C17.8864 6.37466 17.9688 6.17595 17.9688 5.96875V5.1875H20.3125V8.3125H4.6875V5.1875H7.03125ZM20.3125 20.8125H4.6875V9.875H20.3125V20.8125Z" fill="#3C3735"/>
</svg>
