<svg width="25" height="25" viewBox="0 0 25 25" fill="none" xmlns="http://www.w3.org/2000/svg">
<path d="M7.8125 5.46875V2.34375C7.8125 2.13655 7.89481 1.93784 8.04132 1.79132C8.18784 1.64481 8.38655 1.5625 8.59375 1.5625C8.80095 1.5625 8.99966 1.64481 9.14618 1.79132C9.29269 1.93784 9.375 2.13655 9.375 2.34375V5.46875C9.375 5.67595 9.29269 5.87466 9.14618 6.02118C8.99966 6.16769 8.80095 6.25 8.59375 6.25C8.38655 6.25 8.18784 6.16769 8.04132 6.02118C7.89481 5.87466 7.8125 5.67595 7.8125 5.46875ZM11.7188 6.25C11.926 6.25 12.1247 6.16769 12.2712 6.02118C12.4177 5.87466 12.5 5.67595 12.5 5.46875V2.34375C12.5 2.13655 12.4177 1.93784 12.2712 1.79132C12.1247 1.64481 11.926 1.5625 11.7188 1.5625C11.5115 1.5625 11.3128 1.64481 11.1663 1.79132C11.0198 1.93784 10.9375 2.13655 10.9375 2.34375V5.46875C10.9375 5.67595 11.0198 5.87466 11.1663 6.02118C11.3128 6.16769 11.5115 6.25 11.7188 6.25ZM14.8438 6.25C15.051 6.25 15.2497 6.16769 15.3962 6.02118C15.5427 5.87466 15.625 5.67595 15.625 5.46875V2.34375C15.625 2.13655 15.5427 1.93784 15.3962 1.79132C15.2497 1.64481 15.051 1.5625 14.8438 1.5625C14.6365 1.5625 14.4378 1.64481 14.2913 1.79132C14.1448 1.93784 14.0625 2.13655 14.0625 2.34375V5.46875C14.0625 5.67595 14.1448 5.87466 14.2913 6.02118C14.4378 6.16769 14.6365 6.25 14.8438 6.25ZM24.2188 11.7188V12.5C24.2184 13.4937 23.8394 14.4499 23.1589 15.174C22.4784 15.8981 21.5474 16.3356 20.5557 16.3975C20.0228 17.9048 19.1154 19.252 17.9189 20.3125H20.3125C20.5197 20.3125 20.7184 20.3948 20.8649 20.5413C21.0114 20.6878 21.0938 20.8865 21.0938 21.0938C21.0938 21.301 21.0114 21.4997 20.8649 21.6462C20.7184 21.7927 20.5197 21.875 20.3125 21.875H3.125C2.9178 21.875 2.71909 21.7927 2.57257 21.6462C2.42606 21.4997 2.34375 21.301 2.34375 21.0938C2.34375 20.8865 2.42606 20.6878 2.57257 20.5413C2.71909 20.3948 2.9178 20.3125 3.125 20.3125H5.52148C4.52471 19.4319 3.72607 18.3498 3.1783 17.1378C2.63053 15.9258 2.34608 14.6113 2.34375 13.2812V8.59375C2.34375 8.38655 2.42606 8.18784 2.57257 8.04132C2.71909 7.89481 2.9178 7.8125 3.125 7.8125H20.3125C21.3485 7.8125 22.3421 8.22405 23.0746 8.95661C23.8072 9.68918 24.2188 10.6827 24.2188 11.7188ZM19.5312 9.375H3.90625V13.2812C3.90926 14.7481 4.3238 16.1847 5.10274 17.4277C5.88167 18.6707 6.99374 19.6702 8.3125 20.3125H15.125C16.4438 19.6702 17.5558 18.6707 18.3348 17.4277C19.1137 16.1847 19.5282 14.7481 19.5312 13.2812V9.375ZM22.6562 11.7188C22.6561 11.2342 22.5058 10.7616 22.226 10.366C21.9461 9.97042 21.5506 9.67128 21.0938 9.50977V13.2812C21.0932 13.7718 21.054 14.2616 20.9766 14.7461C21.4613 14.6029 21.8868 14.3068 22.1895 13.902C22.4922 13.4972 22.6559 13.0054 22.6562 12.5V11.7188Z" fill="#0E385D"/>
</svg>
