<svg width="25" height="25" viewBox="0 0 25 25" fill="none" xmlns="http://www.w3.org/2000/svg">
<path d="M10.8873 5.13965C10.7038 4.95664 10.4772 4.8228 10.2283 4.75047C9.97948 4.67814 9.71641 4.66966 9.46341 4.7258C9.21041 4.78195 8.97563 4.90091 8.78073 5.07172C8.58583 5.24253 8.4371 5.45968 8.34825 5.70312L3.22227 19.8027C3.13806 20.0352 3.11086 20.2846 3.14295 20.5298C3.17505 20.775 3.26549 21.0089 3.4067 21.2119C3.5479 21.4149 3.73575 21.5811 3.95447 21.6964C4.17319 21.8118 4.4164 21.8731 4.66368 21.875C4.84574 21.8738 5.02619 21.8407 5.19688 21.7773L19.2955 16.6504C19.539 16.5617 19.7563 16.413 19.9272 16.2181C20.0981 16.0233 20.2172 15.7885 20.2734 15.5355C20.3297 15.2825 20.3213 15.0194 20.249 14.7705C20.1768 14.5216 20.043 14.2949 19.86 14.1113L10.8873 5.13965ZM10.0738 18.3438L6.65587 14.9258L7.94102 11.3896L13.61 17.0586L10.0738 18.3438ZM4.70274 20.2969L6.06993 16.5459L8.45762 18.9336L4.70274 20.2969ZM15.234 16.4688L8.53087 9.76562L9.8004 6.26269L18.7291 15.1914L15.234 16.4688ZM15.6246 7.03125C15.6393 6.5031 15.7672 5.98425 15.9996 5.50977C16.5172 4.47559 17.4938 3.90625 18.7496 3.90625C19.4039 3.90625 19.8238 3.68262 20.0826 3.20215C20.2189 2.93335 20.2971 2.63888 20.3121 2.33789C20.3129 2.13069 20.3959 1.93228 20.543 1.78632C20.6901 1.64036 20.8891 1.55879 21.0963 1.55957C21.3035 1.56035 21.5019 1.6434 21.6479 1.79046C21.7938 1.93753 21.8754 2.13655 21.8746 2.34375C21.8746 3.59961 21.0426 5.46875 18.7496 5.46875C18.0953 5.46875 17.6754 5.69238 17.4166 6.17285C17.2803 6.44165 17.2022 6.73612 17.1871 7.03711C17.1867 7.1397 17.1661 7.24122 17.1265 7.33586C17.0869 7.4305 17.029 7.51641 16.9562 7.58868C16.8834 7.66095 16.7971 7.71818 16.7021 7.75708C16.6072 7.79599 16.5055 7.81581 16.4029 7.81543C16.3003 7.81504 16.1988 7.79446 16.1042 7.75484C16.0095 7.71522 15.9236 7.65735 15.8514 7.58454C15.7791 7.51172 15.7219 7.42538 15.683 7.33044C15.6441 7.23551 15.6242 7.13385 15.6246 7.03125ZM13.2809 3.90625V1.5625C13.2809 1.3553 13.3632 1.15659 13.5097 1.01007C13.6562 0.86356 13.8549 0.78125 14.0621 0.78125C14.2693 0.78125 14.468 0.86356 14.6145 1.01007C14.7611 1.15659 14.8434 1.3553 14.8434 1.5625V3.90625C14.8434 4.11345 14.7611 4.31216 14.6145 4.45868C14.468 4.60519 14.2693 4.6875 14.0621 4.6875C13.8549 4.6875 13.6562 4.60519 13.5097 4.45868C13.3632 4.31216 13.2809 4.11345 13.2809 3.90625ZM23.2086 11.9473C23.2811 12.0199 23.3386 12.106 23.3779 12.2008C23.4171 12.2956 23.4373 12.3973 23.4372 12.4999C23.4372 12.6025 23.4169 12.7041 23.3776 12.7988C23.3383 12.8936 23.2807 12.9797 23.2081 13.0522C23.1355 13.1248 23.0494 13.1823 22.9546 13.2215C22.8597 13.2607 22.7581 13.2809 22.6555 13.2809C22.5529 13.2808 22.4513 13.2606 22.3565 13.2212C22.2618 13.1819 22.1757 13.1243 22.1031 13.0518L20.5406 11.4893C20.394 11.3427 20.3117 11.1438 20.3117 10.9365C20.3117 10.7292 20.394 10.5304 20.5406 10.3838C20.6872 10.2372 20.8861 10.1548 21.0934 10.1548C21.3007 10.1548 21.4995 10.2372 21.6461 10.3838L23.2086 11.9473ZM23.6842 7.77246L21.3404 8.55371C21.1439 8.61924 20.9293 8.60399 20.744 8.51132C20.5586 8.41865 20.4177 8.25615 20.3522 8.05957C20.2866 7.86299 20.3019 7.64843 20.3945 7.46309C20.4872 7.27775 20.6497 7.13682 20.8463 7.07129L23.19 6.29004C23.3866 6.22451 23.6012 6.23976 23.7865 6.33243C23.9719 6.4251 24.1128 6.5876 24.1783 6.78418C24.2439 6.98076 24.2286 7.19532 24.1359 7.38066C24.0433 7.566 23.8808 7.70693 23.6842 7.77246Z" fill="#0E385D"/>
</svg>
