<svg width="23" height="23" viewBox="0 0 23 23" fill="none" xmlns="http://www.w3.org/2000/svg">
<path d="M11.5 6C10.8201 6 10.1555 6.20161 9.59023 6.57932C9.02493 6.95704 8.58434 7.4939 8.32416 8.12203C8.06399 8.75015 7.99591 9.44131 8.12855 10.1081C8.26119 10.7749 8.58858 11.3874 9.06932 11.8682C9.55006 12.3489 10.1626 12.6763 10.8294 12.8089C11.4962 12.9416 12.1874 12.8735 12.8155 12.6133C13.4436 12.3532 13.9805 11.9126 14.3582 11.3473C14.7359 10.782 14.9375 10.1174 14.9375 9.4375C14.9375 8.52582 14.5753 7.65148 13.9307 7.00682C13.286 6.36216 12.4117 6 11.5 6ZM11.5 11.5C11.0921 11.5 10.6933 11.379 10.3541 11.1524C10.015 10.9258 9.7506 10.6037 9.5945 10.2268C9.43839 9.84991 9.39755 9.43521 9.47713 9.03513C9.55671 8.63504 9.75315 8.26754 10.0416 7.97909C10.33 7.69065 10.6975 7.49421 11.0976 7.41463C11.4977 7.33505 11.9124 7.37589 12.2893 7.532C12.6662 7.6881 12.9883 7.95246 13.2149 8.29164C13.4415 8.63081 13.5625 9.02958 13.5625 9.4375C13.5625 9.98451 13.3452 10.5091 12.9584 10.8959C12.5716 11.2827 12.047 11.5 11.5 11.5ZM11.5 1.875C9.495 1.87727 7.57277 2.67477 6.15502 4.09252C4.73727 5.51027 3.93977 7.4325 3.9375 9.4375C3.9375 12.1359 5.18445 14.9959 7.54688 17.709C8.60839 18.9349 9.80312 20.0389 11.109 21.0004C11.2246 21.0814 11.3623 21.1248 11.5034 21.1248C11.6446 21.1248 11.7823 21.0814 11.8979 21.0004C13.2013 20.0385 14.3938 18.9346 15.4531 17.709C17.8121 14.9959 19.0625 12.1359 19.0625 9.4375C19.0602 7.4325 18.2627 5.51027 16.845 4.09252C15.4272 2.67477 13.505 1.87727 11.5 1.875ZM11.5 19.5781C10.0795 18.4609 5.3125 14.3574 5.3125 9.4375C5.3125 7.79647 5.9644 6.22266 7.12478 5.06228C8.28516 3.9019 9.85897 3.25 11.5 3.25C13.141 3.25 14.7148 3.9019 15.8752 5.06228C17.0356 6.22266 17.6875 7.79647 17.6875 9.4375C17.6875 14.3557 12.9205 18.4609 11.5 19.5781Z" fill="#F7F7F7"/>
</svg>
