<svg width="23" height="23" viewBox="0 0 23 23" fill="none" xmlns="http://www.w3.org/2000/svg">
<path d="M19.75 4.625H3.25C3.06766 4.625 2.8928 4.69743 2.76386 4.82636C2.63493 4.9553 2.5625 5.13016 2.5625 5.3125V17C2.5625 17.3647 2.70737 17.7144 2.96523 17.9723C3.22309 18.2301 3.57283 18.375 3.9375 18.375H19.0625C19.4272 18.375 19.7769 18.2301 20.0348 17.9723C20.2926 17.7144 20.4375 17.3647 20.4375 17V5.3125C20.4375 5.13016 20.3651 4.9553 20.2361 4.82636C20.1072 4.69743 19.9323 4.625 19.75 4.625ZM11.5 11.9426L5.01773 6H17.9823L11.5 11.9426ZM8.98289 11.5L3.9375 16.1243V6.8757L8.98289 11.5ZM10.0004 12.4324L11.0316 13.382C11.1585 13.4985 11.3244 13.5631 11.4966 13.5631C11.6687 13.5631 11.8346 13.4985 11.9615 13.382L12.9927 12.4324L17.9771 17H5.01773L10.0004 12.4324ZM14.0171 11.5L19.0625 6.87484V16.1252L14.0171 11.5Z" fill="#F7F7F7"/>
</svg>
