<svg width="23" height="23" viewBox="0 0 23 23" fill="none" xmlns="http://www.w3.org/2000/svg">
<path d="M19.6099 14.1176L15.5614 12.3035L15.5502 12.2983C15.3401 12.2084 15.1108 12.1723 14.8832 12.1933C14.6555 12.2144 14.4367 12.2918 14.2466 12.4186C14.2242 12.4334 14.2027 12.4495 14.1821 12.4667L12.0904 14.2499C10.7652 13.6063 9.39712 12.2485 8.75345 10.9405L10.5392 8.81698C10.5564 8.7955 10.5727 8.77401 10.5882 8.75081C10.7123 8.56115 10.7876 8.34374 10.8074 8.11794C10.8272 7.89214 10.7909 7.66495 10.7016 7.45659V7.44628L8.88235 3.39089C8.76439 3.11869 8.56157 2.89195 8.30415 2.7445C8.04674 2.59705 7.74854 2.53681 7.45407 2.57276C6.28959 2.72599 5.22071 3.29787 4.44706 4.18159C3.67341 5.06531 3.2479 6.20043 3.25001 7.37495C3.25001 14.1984 8.80157 19.7499 15.625 19.7499C16.7995 19.7521 17.9346 19.3265 18.8184 18.5529C19.7021 17.7792 20.274 16.7104 20.4272 15.5459C20.4632 15.2515 20.4031 14.9534 20.2558 14.696C20.1085 14.4386 19.882 14.2357 19.6099 14.1176ZM15.625 18.3749C12.7086 18.3718 9.91256 17.2118 7.85035 15.1496C5.78814 13.0874 4.62819 10.2914 4.62501 7.37495C4.62177 6.53576 4.92411 5.72408 5.47556 5.09151C6.02701 4.45893 6.78986 4.04871 7.62165 3.93745C7.62131 3.94088 7.62131 3.94433 7.62165 3.94776L9.42634 7.98682L7.65001 10.1129C7.63198 10.1337 7.6156 10.1558 7.60102 10.1791C7.4717 10.3775 7.39583 10.606 7.38078 10.8424C7.36572 11.0788 7.41199 11.3151 7.51509 11.5283C8.29368 13.1207 9.89813 14.7132 11.5077 15.4909C11.7226 15.593 11.9602 15.6377 12.1974 15.6205C12.4347 15.6033 12.6634 15.5249 12.8613 15.3929C12.8833 15.3781 12.9046 15.362 12.9249 15.3448L15.014 13.5624L19.0531 15.3714C19.0531 15.3714 19.0599 15.3714 19.0625 15.3714C18.9526 16.2044 18.543 16.9688 17.9103 17.5216C17.2776 18.0744 16.4652 18.3778 15.625 18.3749Z" fill="#F7F7F7"/>
</svg>
