<svg width="25" height="25" viewBox="0 0 25 25" fill="none" xmlns="http://www.w3.org/2000/svg">
<path d="M24.2185 7.81249C24.2189 7.38423 24.1186 6.96186 23.9259 6.57942C23.7331 6.19699 23.4532 5.86517 23.1088 5.61072C22.7643 5.35626 22.3649 5.18627 21.9427 5.11445C21.5205 5.04263 21.0873 5.07098 20.6781 5.19723C20.2688 5.32347 19.895 5.54408 19.5866 5.84127C19.2782 6.13846 19.044 6.50393 18.9028 6.90823C18.7615 7.31253 18.7172 7.74436 18.7734 8.16892C18.8296 8.59348 18.9847 8.9989 19.2263 9.35253L16.6101 12.5752L14.2576 7.16796C14.6866 6.80684 14.9943 6.32254 15.1388 5.78068C15.2833 5.23883 15.2578 4.66564 15.0656 4.1388C14.8734 3.61197 14.5238 3.15697 14.0643 2.83547C13.6048 2.51398 13.0576 2.34155 12.4968 2.34155C11.936 2.34155 11.3888 2.51398 10.9293 2.83547C10.4698 3.15697 10.1202 3.61197 9.92803 4.1388C9.73584 4.66564 9.71028 5.23883 9.85482 5.78068C9.99936 6.32254 10.307 6.80684 10.7361 7.16796L8.38939 12.5723L5.77318 9.3496C6.10925 8.85716 6.27518 8.26838 6.24568 7.67293C6.21618 7.07747 5.99288 6.50797 5.60978 6.05116C5.22668 5.59435 4.70479 5.27526 4.12357 5.1425C3.54235 5.00973 2.93367 5.07057 2.39022 5.31573C1.84678 5.56089 1.39835 5.97695 1.11323 6.50054C0.828117 7.02414 0.721938 7.62656 0.810868 8.21608C0.899798 8.8056 1.17896 9.3499 1.60585 9.76608C2.03273 10.1823 2.58394 10.4475 3.17552 10.5215L4.58958 19.0068C4.65037 19.3716 4.83859 19.703 5.12077 19.9421C5.40294 20.1812 5.76076 20.3124 6.1306 20.3125H18.8689C19.2387 20.3124 19.5965 20.1812 19.8787 19.9421C20.1609 19.703 20.3491 19.3716 20.4099 19.0068L21.823 10.5254C22.4843 10.4428 23.0927 10.1215 23.5338 9.62196C23.9749 9.1224 24.2184 8.47893 24.2185 7.81249ZM12.4997 3.90624C12.7315 3.90624 12.9581 3.97497 13.1508 4.10374C13.3435 4.2325 13.4937 4.41553 13.5824 4.62966C13.6711 4.84379 13.6943 5.07942 13.6491 5.30674C13.6039 5.53406 13.4923 5.74287 13.3284 5.90676C13.1645 6.07065 12.9557 6.18226 12.7284 6.22747C12.501 6.27269 12.2654 6.24948 12.0513 6.16079C11.8371 6.07209 11.6541 5.92189 11.5254 5.72917C11.3966 5.53646 11.3279 5.30989 11.3279 5.07811C11.3279 4.76731 11.4513 4.46924 11.6711 4.24947C11.8909 4.0297 12.1889 3.90624 12.4997 3.90624ZM2.34349 7.81249C2.34349 7.58072 2.41222 7.35415 2.54098 7.16143C2.66975 6.96872 2.85277 6.81852 3.06691 6.72982C3.28104 6.64112 3.51666 6.61792 3.74398 6.66313C3.97131 6.70835 4.18011 6.81996 4.344 6.98385C4.50789 7.14774 4.6195 7.35655 4.66472 7.58387C4.70994 7.81119 4.68673 8.04682 4.59803 8.26095C4.50934 8.47508 4.35914 8.6581 4.16642 8.78687C3.97371 8.91564 3.74714 8.98437 3.51536 8.98437C3.20456 8.98436 2.90649 8.8609 2.68672 8.64113C2.46695 8.42136 2.34349 8.12329 2.34349 7.81249ZM18.8689 18.75H6.1306L4.77122 10.5976L7.98704 14.5508C8.05988 14.6417 8.15214 14.7153 8.25707 14.766C8.36201 14.8167 8.47695 14.8432 8.59349 14.8437C8.62876 14.8439 8.664 14.8416 8.69896 14.8369C8.83205 14.8188 8.95823 14.7667 9.06532 14.6856C9.1724 14.6045 9.25677 14.4972 9.31029 14.374L12.1716 7.79198C12.3895 7.81931 12.61 7.81931 12.8279 7.79198L15.6892 14.374C15.7427 14.4972 15.8271 14.6045 15.9342 14.6856C16.0412 14.7667 16.1674 14.8188 16.3005 14.8369C16.3355 14.8416 16.3707 14.8439 16.406 14.8437C16.5225 14.8432 16.6375 14.8167 16.7424 14.766C16.8473 14.7153 16.9396 14.6417 17.0124 14.5508L20.2283 10.5937L18.8689 18.75ZM21.4841 8.98437C21.2523 8.98437 21.0258 8.91564 20.8331 8.78687C20.6403 8.6581 20.4901 8.47508 20.4014 8.26095C20.3127 8.04682 20.2895 7.81119 20.3348 7.58387C20.38 7.35655 20.4916 7.14774 20.6555 6.98385C20.8194 6.81996 21.0282 6.70835 21.2555 6.66313C21.4828 6.61792 21.7184 6.64112 21.9326 6.72982C22.1467 6.81852 22.3297 6.96872 22.4585 7.16143C22.5873 7.35415 22.656 7.58072 22.656 7.81249C22.656 8.12329 22.5325 8.42136 22.3128 8.64113C22.093 8.8609 21.7949 8.98436 21.4841 8.98437Z" fill="#0E385D"/>
</svg>
