<svg width="32" height="32" viewBox="0 0 32 32" fill="none" xmlns="http://www.w3.org/2000/svg">
<path d="M18.7013 10.7137L7.50128 21.7137C7.31424 21.8977 7.06239 22.0008 6.80003 22.0008C6.53767 22.0008 6.28582 21.8977 6.09878 21.7137L1.29878 17C1.20513 16.9079 1.13053 16.7983 1.07926 16.6773C1.02798 16.5564 1.00102 16.4266 0.999913 16.2953C0.99881 16.1639 1.02359 16.0337 1.07283 15.9119C1.12207 15.7901 1.19481 15.6793 1.2869 15.5856C1.37899 15.492 1.48863 15.4174 1.60954 15.3661C1.73046 15.3148 1.86029 15.2879 1.99163 15.2867C2.12297 15.2856 2.25324 15.3104 2.375 15.3597C2.49676 15.4089 2.60763 15.4816 2.70128 15.5737L6.80003 19.5987L17.3 9.28624C17.4893 9.10025 17.7448 8.99709 18.0101 8.99943C18.1415 9.00059 18.2714 9.02762 18.3923 9.07898C18.5133 9.13033 18.6229 9.20501 18.715 9.29874C18.8071 9.39247 18.8798 9.50342 18.9291 9.62526C18.9783 9.74709 19.003 9.87743 19.0018 10.0088C19.0007 10.1402 18.9736 10.2701 18.9223 10.391C18.8709 10.512 18.7963 10.6216 18.7025 10.7137H18.7013ZM30.7138 9.29874C30.6217 9.20494 30.5121 9.1302 30.3911 9.0788C30.2702 9.0274 30.1403 9.00035 30.0089 8.99918C29.8775 8.99802 29.7471 9.02278 29.6253 9.07203C29.5034 9.12129 29.3925 9.19408 29.2988 9.28624L18.7988 19.5987L16.445 17.2862C16.2557 17.1004 16.0004 16.9974 15.7351 16.9999C15.4699 17.0023 15.2165 17.1101 15.0307 17.2994C14.8448 17.4887 14.7418 17.744 14.7443 18.0093C14.7467 18.2745 14.8545 18.5279 15.0438 18.7137L18.0975 21.7137C18.2846 21.8977 18.5364 22.0008 18.7988 22.0008C19.0611 22.0008 19.313 21.8977 19.5 21.7137L30.7 10.7137C30.7939 10.6218 30.8687 10.5122 30.9203 10.3913C30.9718 10.2704 30.9989 10.1405 31.0002 10.0091C31.0015 9.87767 30.9768 9.74729 30.9277 9.6254C30.8785 9.50351 30.8059 9.39251 30.7138 9.29874Z" fill="#0E385D"/>
</svg>
