<svg width="25" height="25" viewBox="0 0 25 25" fill="none" xmlns="http://www.w3.org/2000/svg">
<path d="M21.0938 3.90625H3.90625C3.49185 3.90625 3.09442 4.07087 2.8014 4.3639C2.50837 4.65692 2.34375 5.05435 2.34375 5.46875V18.75C2.34375 19.1644 2.50837 19.5618 2.8014 19.8549C3.09442 20.1479 3.49185 20.3125 3.90625 20.3125H5.46875V21.875C5.46875 22.0822 5.55106 22.2809 5.69757 22.4274C5.84409 22.5739 6.0428 22.6562 6.25 22.6562C6.4572 22.6562 6.65591 22.5739 6.80243 22.4274C6.94894 22.2809 7.03125 22.0822 7.03125 21.875V20.3125H17.9688V21.875C17.9688 22.0822 18.0511 22.2809 18.1976 22.4274C18.3441 22.5739 18.5428 22.6562 18.75 22.6562C18.9572 22.6562 19.1559 22.5739 19.3024 22.4274C19.4489 22.2809 19.5312 22.0822 19.5312 21.875V20.3125H21.0938C21.5082 20.3125 21.9056 20.1479 22.1986 19.8549C22.4916 19.5618 22.6562 19.1644 22.6562 18.75V5.46875C22.6562 5.05435 22.4916 4.65692 22.1986 4.3639C21.9056 4.07087 21.5082 3.90625 21.0938 3.90625ZM21.0938 18.75H3.90625V5.46875H21.0938V11.7188H19.4648C19.269 10.5598 18.6448 9.51682 17.7162 8.79637C16.7875 8.07592 15.6221 7.73063 14.4509 7.82892C13.2797 7.92721 12.1881 8.46191 11.3925 9.32705C10.5969 10.1922 10.1554 11.3247 10.1554 12.5C10.1554 13.6753 10.5969 14.8078 11.3925 15.6729C12.1881 16.5381 13.2797 17.0728 14.4509 17.1711C15.6221 17.2694 16.7875 16.9241 17.7162 16.2036C18.6448 15.4832 19.269 14.4402 19.4648 13.2812H21.0938V18.75ZM16.1953 11.7188C16.0233 11.4209 15.7579 11.1881 15.4401 11.0564C15.1223 10.9248 14.77 10.9017 14.4377 10.9907C14.1055 11.0798 13.8119 11.2759 13.6025 11.5488C13.3931 11.8217 13.2796 12.156 13.2796 12.5C13.2796 12.844 13.3931 13.1783 13.6025 13.4512C13.8119 13.7241 14.1055 13.9202 14.4377 14.0093C14.77 14.0983 15.1223 14.0752 15.4401 13.9436C15.7579 13.8119 16.0233 13.5791 16.1953 13.2812H17.8711C17.6809 14.0177 17.2287 14.6595 16.5992 15.0864C15.9697 15.5133 15.2061 15.6959 14.4516 15.6001C13.697 15.5043 13.0033 15.1365 12.5005 14.5658C11.9977 13.9951 11.7203 13.2606 11.7203 12.5C11.7203 11.7394 11.9977 11.0049 12.5005 10.4342C13.0033 9.86349 13.697 9.49575 14.4516 9.39991C15.2061 9.30407 15.9697 9.48671 16.5992 9.91359C17.2287 10.3405 17.6809 10.9823 17.8711 11.7188H16.1953Z" fill="#0E385D"/>
</svg>
