<svg width="70" height="70" viewBox="0 0 70 70" fill="none" xmlns="http://www.w3.org/2000/svg">
<path d="M66.2731 33.8107C66.0659 33.4456 65.788 33.1254 65.4556 32.8691C65.1232 32.6127 64.7429 32.4253 64.3371 32.3177C61.9899 31.7216 59.5523 31.5667 57.1485 31.8611C58.6469 25.9931 57.7993 21.372 56.9434 18.7361C56.6921 17.9481 56.1562 17.2821 55.4403 16.868C54.7244 16.4539 53.8798 16.3215 53.0715 16.4966C50.008 17.1867 47.1214 18.5061 44.595 20.3712C42.9269 16.4967 40.3018 13.1095 36.9661 10.5275C36.3988 10.095 35.7052 9.86084 34.9918 9.86084C34.2785 9.86084 33.5849 10.095 33.0176 10.5275C29.6819 13.1095 27.0568 16.4967 25.3887 20.3712C22.862 18.5066 19.9755 17.1872 16.9122 16.4966C16.1039 16.3215 15.2593 16.4539 14.5434 16.868C13.8274 17.2821 13.2915 17.9481 13.0403 18.7361C12.1844 21.3829 11.3368 26.004 12.8352 31.8611C10.4341 31.5678 7.99936 31.7226 5.65473 32.3177C5.24896 32.4253 4.86872 32.6127 4.5363 32.8691C4.20388 33.1254 3.92595 33.4456 3.71879 33.8107C3.49914 34.1879 3.35698 34.6052 3.30064 35.0381C3.24429 35.471 3.2749 35.9108 3.39067 36.3318C4.27661 39.613 7.00004 45.8501 15.2907 50.8021C23.5813 55.754 31.0215 55.7814 35 55.7814C38.9786 55.7814 46.3778 55.7814 54.7067 50.8021C63.0356 45.8228 65.7207 39.6103 66.6067 36.3318C66.7216 35.9105 66.7513 35.4705 66.6941 35.0376C66.6368 34.6047 66.4937 34.1876 66.2731 33.8107ZM53.5391 18.624C53.8196 18.5658 54.1118 18.6147 54.3581 18.7609C54.6045 18.9071 54.7873 19.1401 54.8707 19.4142C55.9645 22.8322 57.0582 29.9005 51.9258 38.8282C49.0684 43.8021 45.0598 47.6329 41.5051 50.1595C44.2969 46.4845 47.0313 40.8079 47.0313 32.5911C47.0602 29.1529 46.5169 25.7338 45.4235 22.474C47.8123 20.6088 50.5835 19.2942 53.5391 18.624ZM15.1293 19.4142C15.2149 19.1423 15.3988 18.9121 15.645 18.7685C15.8913 18.6249 16.1822 18.5782 16.461 18.6376C19.4155 19.3038 22.1866 20.6137 24.5766 22.474C23.4832 25.7338 22.9398 29.1529 22.9688 32.5911C22.9688 40.8079 25.7032 46.4872 28.495 50.154C24.9403 47.6275 20.9317 43.7966 18.0743 38.8228C12.9391 29.8868 14.0247 22.8185 15.1293 19.4142ZM16.42 48.9454C8.79106 44.3872 6.30278 38.7407 5.50981 35.7794C5.46946 35.6366 5.45859 35.4871 5.47786 35.34C5.49714 35.1928 5.54615 35.0512 5.62192 34.9236C5.68571 34.8082 5.7721 34.7068 5.87592 34.6255C5.97975 34.5443 6.09888 34.4847 6.22621 34.4505C8.61681 33.8506 11.1065 33.7575 13.5352 34.1771C14.2342 36.1695 15.1185 38.092 16.1766 39.9193C19.8079 46.2357 25.1071 50.7665 29.3754 53.3478C24.7872 52.8316 20.3664 51.3228 16.42 48.9263V48.9454ZM35.0137 53.4134C33.2315 52.1727 31.6555 50.6594 30.3434 48.929C26.8981 44.4556 25.1563 38.965 25.1563 32.5911C25.1563 20.4915 31.5793 14.3392 34.3411 12.2583C34.5309 12.115 34.7622 12.0375 35 12.0375C35.2379 12.0375 35.4692 12.115 35.659 12.2583C38.4207 14.3392 44.8438 20.4915 44.8438 32.5911C44.8438 38.965 43.102 44.4556 39.6704 48.9099C38.3583 50.6403 36.7823 52.1535 35 53.3943L35.0137 53.4134ZM64.5039 35.7794C63.7055 38.7407 61.2227 44.3872 53.5938 48.9454C49.6469 51.3401 45.2261 52.8469 40.6383 53.3615C44.9067 50.7802 50.2086 46.2521 53.8372 39.9329C54.8952 38.1057 55.7796 36.1832 56.4786 34.1907C58.9072 33.7698 61.3971 33.8629 63.7875 34.4642C63.9149 34.4984 64.034 34.5579 64.1378 34.6392C64.2417 34.7205 64.328 34.8218 64.3918 34.9372C64.5314 35.188 64.5667 35.4836 64.4903 35.7603L64.5039 35.7794Z" fill="#FFCB24"/>
</svg>
