<svg width="70" height="70" viewBox="0 0 70 70" fill="none" xmlns="http://www.w3.org/2000/svg">
<path d="M44.8437 20.7813C46.1417 20.7813 47.4105 20.3964 48.4897 19.6753C49.5689 18.9542 50.41 17.9293 50.9067 16.7301C51.4034 15.531 51.5334 14.2115 51.2801 12.9385C51.0269 11.6655 50.4019 10.4961 49.4841 9.57836C48.5664 8.66058 47.397 8.03557 46.124 7.78235C44.851 7.52913 43.5315 7.65909 42.3324 8.15579C41.1332 8.65249 40.1083 9.49363 39.3872 10.5728C38.6661 11.652 38.2812 12.9208 38.2812 14.2188C38.2812 15.9592 38.9726 17.6284 40.2034 18.8591C41.4341 20.0898 43.1033 20.7813 44.8437 20.7813ZM44.8437 9.84375C45.709 9.84375 46.5549 10.1003 47.2744 10.5811C47.9938 11.0618 48.5546 11.7451 48.8857 12.5445C49.2169 13.3439 49.3035 14.2236 49.1347 15.0723C48.9659 15.9209 48.5492 16.7005 47.9373 17.3123C47.3255 17.9242 46.5459 18.3409 45.6973 18.5097C44.8486 18.6785 43.9689 18.5919 43.1695 18.2607C42.3701 17.9296 41.6868 17.3688 41.2061 16.6494C40.7253 15.9299 40.4687 15.084 40.4687 14.2188C40.4687 13.0584 40.9297 11.9456 41.7502 11.1252C42.5706 10.3047 43.6834 9.84375 44.8437 9.84375ZM68.7531 54.1406L53.8344 28.9625C53.547 28.4686 53.1347 28.059 52.6389 27.7748C52.143 27.4907 51.5812 27.342 51.0098 27.3438C50.4397 27.3408 49.879 27.4879 49.3837 27.7701C48.8884 28.0523 48.476 28.4597 48.1879 28.9516L40.0914 42.6234L26.8898 20.2098C26.6 19.7176 26.1867 19.3096 25.6908 19.0262C25.1949 18.7428 24.6337 18.5937 24.0625 18.5937C23.4913 18.5937 22.9301 18.7428 22.4342 19.0262C21.9383 19.3096 21.525 19.7176 21.2352 20.2098L1.24413 54.1406C1.1483 54.3066 1.09777 54.4949 1.0976 54.6865C1.09743 54.8782 1.14763 55.0666 1.24317 55.2327C1.33871 55.3989 1.47623 55.537 1.64197 55.6333C1.8077 55.7296 1.99583 55.7806 2.18749 55.7813H67.8125C68.0039 55.7801 68.1917 55.7287 68.3571 55.6323C68.5224 55.5358 68.6596 55.3976 68.7548 55.2315C68.85 55.0655 68.9 54.8773 68.8997 54.6859C68.8994 54.4944 68.8488 54.3064 68.7531 54.1406ZM23.1191 21.3281C23.2156 21.1637 23.3535 21.0273 23.5189 20.9325C23.6844 20.8377 23.8718 20.7879 24.0625 20.7879C24.2532 20.7879 24.4406 20.8377 24.606 20.9325C24.7715 21.0273 24.9094 21.1637 25.0059 21.3281L32.4215 33.9063H15.7035L23.1191 21.3281ZM4.10156 53.5938L14.4129 36.0938H33.7121L44.0234 53.5938H4.10156ZM46.5637 53.5938L41.3684 44.7645L50.0691 30.0781C50.166 29.9149 50.3036 29.7797 50.4685 29.6858C50.6335 29.5919 50.82 29.5425 51.0098 29.5425C51.1995 29.5425 51.3861 29.5919 51.551 29.6858C51.7159 29.7797 51.8535 29.9149 51.9504 30.0781L65.8957 53.5938H46.5637Z" fill="#FFCB24"/>
</svg>
