<svg width="70" height="70" viewBox="0 0 70 70" fill="none" xmlns="http://www.w3.org/2000/svg">
<path d="M48.125 27.3438C49.6393 27.3438 51.1195 26.8947 52.3786 26.0534C53.6376 25.2122 54.619 24.0164 55.1985 22.6174C55.7779 21.2184 55.9296 19.679 55.6341 18.1938C55.3387 16.7087 54.6095 15.3445 53.5388 14.2737C52.468 13.203 51.1038 12.4738 49.6187 12.1784C48.1335 11.8829 46.5941 12.0346 45.1951 12.6141C43.7961 13.1935 42.6003 14.1749 41.7591 15.4339C40.9178 16.693 40.4688 18.1732 40.4688 19.6875C40.4687 21.7181 41.2754 23.6655 42.7112 25.1013C44.147 26.5371 46.0944 27.3438 48.125 27.3438ZM48.125 14.2188C49.2066 14.2188 50.2639 14.5395 51.1633 15.1404C52.0626 15.7413 52.7635 16.5954 53.1775 17.5947C53.5914 18.594 53.6997 19.6936 53.4887 20.7544C53.2777 21.8152 52.7568 22.7897 51.992 23.5545C51.2272 24.3193 50.2527 24.8402 49.1919 25.0512C48.1311 25.2622 47.0315 25.1539 46.0322 24.74C45.0329 24.3261 44.1788 23.6251 43.5779 22.7258C42.977 21.8264 42.6562 20.7691 42.6562 19.6875C42.6562 18.2371 43.2324 16.8461 44.258 15.8205C45.2836 14.7949 46.6746 14.2188 48.125 14.2188ZM59.9047 51.3625C60.0895 51.5859 60.1781 51.8736 60.1509 52.1622C60.1237 52.4509 59.983 52.717 59.7598 52.902C55.6609 56.3008 51.6523 57.9688 47.559 57.9688C46.9999 57.969 46.4412 57.9379 45.8855 57.8758C41.784 57.4246 38.0652 55.4148 34.4777 53.4625C27.4996 49.6727 20.9098 46.0797 11.6348 53.7852C11.4105 53.9611 11.1263 54.0425 10.8428 54.0121C10.5594 53.9816 10.299 53.8417 10.1172 53.6221C9.9354 53.4025 9.84652 53.1206 9.8695 52.8364C9.89248 52.5523 10.0255 52.2883 10.2402 52.1008C14.8887 48.2398 19.4332 46.6129 24.1145 47.127C28.216 47.5781 31.9348 49.5879 35.5223 51.5402C42.5004 55.3301 49.0902 58.9066 58.3652 51.2176C58.5886 51.0328 58.8763 50.9442 59.165 50.9714C59.4536 50.9985 59.7197 51.1392 59.9047 51.3625ZM10.9375 22.9688H17.5656C22.2386 22.9591 26.8208 24.2597 30.7918 26.7231L21.3801 36.1375C17.6531 36.4109 13.9973 38.0516 10.2402 41.1633C10.0255 41.3508 9.89248 41.6148 9.8695 41.8989C9.84652 42.1831 9.9354 42.465 10.1172 42.6846C10.299 42.9042 10.5594 43.0441 10.8428 43.0746C11.1263 43.105 11.4105 43.0236 11.6348 42.8477C20.9098 35.1559 27.4941 38.7461 34.4777 42.525C38.0652 44.4719 41.7758 46.4871 45.8855 46.9383C46.4412 47.0004 46.9999 47.0315 47.559 47.0313C51.6605 47.0313 55.6609 45.3633 59.7598 41.9645C59.8747 41.8743 59.9704 41.7621 60.0412 41.6343C60.112 41.5066 60.1566 41.366 60.1722 41.2207C60.1878 41.0755 60.1741 40.9286 60.1321 40.7888C60.09 40.6489 60.0203 40.5189 59.9272 40.4064C59.834 40.2939 59.7193 40.2012 59.5897 40.1337C59.4602 40.0663 59.3184 40.0255 59.1728 40.0137C59.0273 40.0019 58.8808 40.0194 58.7421 40.0652C58.6034 40.1109 58.4752 40.184 58.3652 40.2801C56.1449 42.1203 54.0777 43.3152 52.1227 44.0152L36.9141 28.7902C34.3793 26.2415 31.3639 24.2211 28.0426 22.8463C24.7213 21.4715 21.1602 20.7696 17.5656 20.7813H10.9375C10.6474 20.7813 10.3692 20.8965 10.1641 21.1016C9.95898 21.3067 9.84375 21.5849 9.84375 21.875C9.84375 22.1651 9.95898 22.4433 10.1641 22.6484C10.3692 22.8535 10.6474 22.9688 10.9375 22.9688ZM49.6727 44.6578C44.5402 45.4973 40.1023 43.0965 35.5223 40.6027C32.0141 38.6887 28.3883 36.7336 24.3852 36.2277L32.632 27.9809C33.593 28.7029 34.5021 29.4914 35.3527 30.3406L49.6727 44.6578Z" fill="#FFCB24"/>
</svg>
