<svg width="70" height="70" viewBox="0 0 70 70" fill="none" xmlns="http://www.w3.org/2000/svg">
<path d="M66.6122 47.6518C66.5229 47.4657 66.3829 47.3087 66.2082 47.1989C66.0335 47.0891 65.8314 47.0309 65.625 47.0311H38.2813V38.2811H59.0625C59.2753 38.2832 59.4841 38.2232 59.6633 38.1084C59.8425 37.9936 59.9844 37.8291 60.0714 37.6349C60.1585 37.4407 60.187 37.2254 60.1535 37.0152C60.1201 36.8051 60.026 36.6093 59.8829 36.4518L38.2813 12.701V2.18731C38.2809 1.96172 38.2107 1.74179 38.0804 1.55765C37.9501 1.3735 37.766 1.23416 37.5534 1.1587C37.3408 1.08325 37.1101 1.07537 36.8928 1.13616C36.6756 1.19694 36.4825 1.32342 36.3399 1.49825L7.90239 36.4982C7.77229 36.6586 7.69025 36.8526 7.66576 37.0576C7.64127 37.2627 7.67533 37.4705 7.76401 37.657C7.85268 37.8435 7.99235 38.0011 8.16684 38.1115C8.34134 38.2219 8.54354 38.2807 8.75005 38.2811H36.0938V47.0311H4.37505C4.16905 47.0312 3.96727 47.0895 3.79294 47.1993C3.61862 47.309 3.47884 47.4658 3.38969 47.6515C3.30055 47.8372 3.26566 48.0443 3.28906 48.249C3.31245 48.4537 3.39317 48.6476 3.52192 48.8084L11.6129 58.9256C11.9204 59.3097 12.3104 59.6196 12.7539 59.8326C13.1973 60.0456 13.6831 60.1562 14.1751 60.1561H55.825C56.317 60.1562 56.8028 60.0456 57.2462 59.8326C57.6897 59.6196 58.0797 59.3097 58.3872 58.9256L66.4782 48.8084C66.6072 48.6478 66.6882 48.454 66.7119 48.2494C66.7356 48.0448 66.701 47.8376 66.6122 47.6518ZM56.6016 36.0936H38.2813V15.9549L56.6016 36.0936ZM11.0469 36.0936L36.0938 5.26895V36.0936H11.0469ZM56.6782 57.5584C56.5758 57.6863 56.4459 57.7896 56.2983 57.8606C56.1506 57.9315 55.9889 57.9685 55.825 57.9686H14.1751C14.0112 57.9685 13.8495 57.9315 13.7018 57.8606C13.5542 57.7896 13.4243 57.6863 13.3219 57.5584L6.65005 49.2186H63.35L56.6782 57.5584Z" fill="#FFCB24"/>
</svg>
