<svg width="70" height="70" viewBox="0 0 70 70" fill="none" xmlns="http://www.w3.org/2000/svg">
<path d="M48.125 29.5312H41.5625C41.2725 29.5312 40.9943 29.416 40.7891 29.2109C40.584 29.0058 40.4688 28.7276 40.4688 28.4375C40.4688 28.1474 40.584 27.8692 40.7891 27.6641C40.9943 27.459 41.2725 27.3438 41.5625 27.3438H48.125C48.4151 27.3438 48.6933 27.459 48.8984 27.6641C49.1036 27.8692 49.2188 28.1474 49.2188 28.4375C49.2188 28.7276 49.1036 29.0058 48.8984 29.2109C48.6933 29.416 48.4151 29.5312 48.125 29.5312ZM28.4375 27.3438H25.1563V24.0625C25.1563 23.7724 25.0411 23.4942 24.8359 23.2891C24.6308 23.084 24.3526 22.9688 24.0625 22.9688C23.7725 22.9688 23.4943 23.084 23.2891 23.2891C23.084 23.4942 22.9688 23.7724 22.9688 24.0625V27.3438H19.6875C19.3975 27.3438 19.1193 27.459 18.9141 27.6641C18.709 27.8692 18.5938 28.1474 18.5938 28.4375C18.5938 28.7276 18.709 29.0058 18.9141 29.2109C19.1193 29.416 19.3975 29.5312 19.6875 29.5312H22.9688V32.8125C22.9688 33.1026 23.084 33.3808 23.2891 33.5859C23.4943 33.791 23.7725 33.9062 24.0625 33.9062C24.3526 33.9062 24.6308 33.791 24.8359 33.5859C25.0411 33.3808 25.1563 33.1026 25.1563 32.8125V29.5312H28.4375C28.7276 29.5312 29.0058 29.416 29.2109 29.2109C29.4161 29.0058 29.5313 28.7276 29.5313 28.4375C29.5313 28.1474 29.4161 27.8692 29.2109 27.6641C29.0058 27.459 28.7276 27.3438 28.4375 27.3438ZM65.1356 54.2391C64.4027 55.2856 63.4494 56.159 62.3429 56.7978C61.2363 57.4365 60.0033 57.8252 58.7305 57.9365C57.4576 58.0478 56.1759 57.879 54.9753 57.4419C53.7746 57.0048 52.6843 56.3101 51.7809 55.4066L51.7344 55.3574L40.5481 42.6562H29.4547L18.2684 55.3547L18.2192 55.4066C16.5766 57.0455 14.3516 57.9667 12.0313 57.9688C10.7538 57.9682 9.49194 57.688 8.33433 57.1477C7.17672 56.6074 6.15146 55.8202 5.33057 54.8414C4.50967 53.8626 3.91306 52.7159 3.58265 51.4819C3.25224 50.2479 3.19604 48.9565 3.418 47.6984L7.89417 24.6668C8.51545 21.1277 10.3643 17.9208 13.1159 15.6099C15.8674 13.2989 19.3455 12.0318 22.9387 12.0312H47.0313C50.6211 12.0361 54.0953 13.3005 56.8485 15.604C59.6018 17.9076 61.4594 21.1042 62.0977 24.6367C62.0993 24.6458 62.0993 24.655 62.0977 24.6641L66.5739 47.6766C66.7804 48.8112 66.7597 49.9755 66.5128 51.102C66.2659 52.2286 65.7978 53.2949 65.1356 54.2391ZM47.0313 40.4688C48.7549 40.4688 50.4616 40.1293 52.054 39.4697C53.6464 38.8101 55.0933 37.8433 56.3121 36.6245C57.5308 35.4058 58.4976 33.9589 59.1572 32.3665C59.8168 30.7741 60.1563 29.0673 60.1563 27.3438C60.1563 25.6202 59.8168 23.9134 59.1572 22.321C58.4976 20.7286 57.5308 19.2817 56.3121 18.063C55.0933 16.8442 53.6464 15.8774 52.054 15.2178C50.4616 14.5582 48.7549 14.2187 47.0313 14.2188H22.9414C19.8593 14.2205 16.8764 15.3092 14.5178 17.2933C12.1591 19.2774 10.5757 22.0297 10.0461 25.066L5.56722 48.0977C5.27087 49.8091 5.66513 51.5683 6.66358 52.9896C7.66203 54.4109 9.18323 55.3784 10.8938 55.6801C11.925 55.8599 12.9843 55.7904 13.9833 55.4774C14.9822 55.1644 15.8917 54.617 16.636 53.8809L28.1203 40.8406C28.2228 40.724 28.349 40.6305 28.4904 40.5663C28.6319 40.5022 28.7854 40.4689 28.9407 40.4688H47.0313ZM64.4301 48.0785L61.4223 32.5855C60.3436 35.5359 58.385 38.0839 55.8112 39.885C53.2374 41.6861 50.1727 42.6535 47.0313 42.6562H43.4766L53.3641 53.8836C54.354 54.8637 55.6301 55.5034 57.0078 55.7101C58.3854 55.9167 59.7931 55.6797 61.027 55.0332C62.2609 54.3866 63.2571 53.3643 63.8714 52.114C64.4857 50.8637 64.6861 49.4503 64.4438 48.0785H64.4301Z" fill="#FFCB24"/>
</svg>
