<svg width="70" height="70" viewBox="0 0 70 70" fill="none" xmlns="http://www.w3.org/2000/svg">
<path d="M35 7.65625C29.5919 7.65625 24.3053 9.25993 19.8086 12.2645C15.312 15.2691 11.8073 19.5396 9.73768 24.536C7.6681 29.5324 7.1266 35.0303 8.18166 40.3345C9.23673 45.6387 11.841 50.5109 15.6651 54.335C19.4892 58.159 24.3613 60.7633 29.6655 61.8183C34.9697 62.8734 40.4676 62.3319 45.464 60.2623C50.4604 58.1927 54.7309 54.688 57.7355 50.1914C60.7401 45.6947 62.3438 40.4081 62.3438 35C62.3358 27.7504 59.4524 20.8001 54.3262 15.6738C49.1999 10.5476 42.2496 7.66421 35 7.65625ZM59.1008 27.7922C54.5911 26.2001 49.8877 25.2215 45.1172 24.8828C44.774 20.1155 43.7918 15.4159 42.1969 10.9102C46.1893 12.1098 49.8224 14.2794 52.7721 17.2252C55.7217 20.171 57.896 23.8014 59.1008 27.7922ZM39.6485 10.2758C41.1987 14.2931 42.2369 18.4897 42.7383 22.7664C37.4279 18.0529 31.2354 14.4394 24.5192 12.1352C27.8055 10.6212 31.3817 9.83933 35 9.84375C36.5595 9.84401 38.1156 9.98864 39.6485 10.2758ZM21.8367 13.5707C29.1903 15.7665 35.9593 19.5803 41.6473 24.7324C30.2419 24.6328 19.1016 28.171 9.84376 34.8332C9.87353 30.5625 10.9901 26.3696 13.0883 22.6497C15.1865 18.9298 18.1972 15.8054 21.8367 13.5707ZM9.96407 37.4609C19.4406 30.2263 31.1354 26.5072 43.05 26.9391C43.4819 38.8537 39.7628 50.5485 32.5281 60.025C26.7411 59.4451 21.3327 56.8815 17.2202 52.7689C13.1076 48.6563 10.544 43.248 9.96407 37.4609ZM35.1668 60.1562C41.8285 50.8992 45.3666 39.7599 45.2676 28.3555C50.4197 34.0435 54.2335 40.8124 56.4293 48.166C54.1943 51.8051 51.0697 54.8152 47.3498 56.9129C43.63 59.0106 39.4373 60.1268 35.1668 60.1562ZM57.8621 45.4836C55.559 38.7666 51.9465 32.5731 47.2336 27.2617C51.5104 27.7632 55.7069 28.8013 59.7242 30.3516C60.0114 31.8844 60.156 33.4405 60.1563 35C60.1607 38.6184 59.3788 42.1945 57.8649 45.4809L57.8621 45.4836Z" fill="#FFCB24"/>
</svg>
