<svg width="70" height="70" viewBox="0 0 70 70" fill="none" xmlns="http://www.w3.org/2000/svg">
<path d="M63.4375 53.594H53.5938V44.844H61.25C61.4171 44.8443 61.582 44.8063 61.7321 44.7329C61.8823 44.6595 62.0136 44.5528 62.116 44.4208C62.2185 44.2888 62.2893 44.135 62.3231 43.9714C62.3569 43.8078 62.3527 43.6386 62.3109 43.4768L53.5609 8.47678C53.5017 8.24028 53.3651 8.03037 53.1729 7.88038C52.9806 7.73039 52.7438 7.64893 52.5 7.64893C52.2562 7.64893 52.0194 7.73039 51.8271 7.88038C51.6349 8.03037 51.4983 8.24028 51.4391 8.47678L42.6891 43.4768C42.6473 43.6386 42.6431 43.8078 42.6769 43.9714C42.7107 44.135 42.7815 44.2888 42.884 44.4208C42.9864 44.5528 43.1177 44.6595 43.2679 44.7329C43.418 44.8063 43.5829 44.8443 43.75 44.844H51.4062V53.594H31.7188V47.0315H35C35.2901 47.0315 35.5683 46.9162 35.7734 46.7111C35.9785 46.506 36.0938 46.2278 36.0938 45.9377C36.0938 45.6476 35.9785 45.3694 35.7734 45.1643C35.5683 44.9592 35.2901 44.844 35 44.844H31.7188V38.2815H35C35.2901 38.2815 35.5683 38.1662 35.7734 37.9611C35.9785 37.756 36.0938 37.4778 36.0938 37.1877C36.0938 36.8976 35.9785 36.6194 35.7734 36.4143C35.5683 36.2092 35.2901 36.094 35 36.094H10.9375C10.6474 36.094 10.3692 36.2092 10.1641 36.4143C9.95898 36.6194 9.84375 36.8976 9.84375 37.1877C9.84375 37.4778 9.95898 37.756 10.1641 37.9611C10.3692 38.1662 10.6474 38.2815 10.9375 38.2815H14.2188V44.844H10.9375C10.6474 44.844 10.3692 44.9592 10.1641 45.1643C9.95898 45.3694 9.84375 45.6476 9.84375 45.9377C9.84375 46.2278 9.95898 46.506 10.1641 46.7111C10.3692 46.9162 10.6474 47.0315 10.9375 47.0315H14.2188V53.594H6.5625C6.27242 53.594 5.99422 53.7092 5.7891 53.9143C5.58398 54.1194 5.46875 54.3976 5.46875 54.6877C5.46875 54.9778 5.58398 55.256 5.7891 55.4611C5.99422 55.6662 6.27242 55.7815 6.5625 55.7815H63.4375C63.7276 55.7815 64.0058 55.6662 64.2109 55.4611C64.416 55.256 64.5312 54.9778 64.5312 54.6877C64.5312 54.3976 64.416 54.1194 64.2109 53.9143C64.0058 53.7092 63.7276 53.594 63.4375 53.594ZM52.5 13.2592L59.85 42.6565H45.15L52.5 13.2592ZM16.4062 38.2815H29.5312V44.844H16.4062V38.2815ZM16.4062 47.0315H29.5312V53.594H16.4062V47.0315ZM31.7188 25.1565C33.0167 25.1565 34.2855 24.7716 35.3647 24.0505C36.4439 23.3294 37.285 22.3045 37.7817 21.1053C38.2784 19.9062 38.4084 18.5867 38.1552 17.3137C37.9019 16.0407 37.2769 14.8714 36.3591 13.9536C35.4414 13.0358 34.272 12.4108 32.999 12.1576C31.726 11.9043 30.4065 12.0343 29.2074 12.531C28.0082 13.0277 26.9833 13.8688 26.2622 14.948C25.5411 16.0272 25.1563 17.296 25.1562 18.594C25.1563 20.3345 25.8477 22.0036 27.0784 23.2344C28.3091 24.4651 29.9783 25.1565 31.7188 25.1565ZM31.7188 14.219C32.584 14.219 33.4299 14.4756 34.1494 14.9563C34.8688 15.437 35.4296 16.1203 35.7607 16.9197C36.0919 17.7192 36.1785 18.5988 36.0097 19.4475C35.8409 20.2962 35.4242 21.0757 34.8123 21.6876C34.2005 22.2994 33.4209 22.7161 32.5723 22.8849C31.7236 23.0537 30.8439 22.9671 30.0445 22.6359C29.2451 22.3048 28.5618 21.7441 28.0811 21.0246C27.6003 20.3051 27.3438 19.4593 27.3438 18.594C27.3438 17.4336 27.8047 16.3208 28.6252 15.5004C29.4456 14.6799 30.5584 14.219 31.7188 14.219Z" fill="#FFCB24"/>
</svg>
