<svg width="70" height="70" viewBox="0 0 70 70" fill="none" xmlns="http://www.w3.org/2000/svg">
<path d="M24.0625 39.7551C24.3526 39.7551 24.6308 39.6398 24.8359 39.4347C25.041 39.2296 25.1562 38.9514 25.1562 38.6613V33.9062H44.8438V39.1809C44.8438 39.4709 44.959 39.7491 45.1641 39.9543C45.3692 40.1594 45.6474 40.2746 45.9375 40.2746C46.2276 40.2746 46.5058 40.1594 46.7109 39.9543C46.916 39.7491 47.0312 39.4709 47.0312 39.1809V8.75C47.0312 8.45992 46.916 8.18172 46.7109 7.9766C46.5058 7.77148 46.2276 7.65625 45.9375 7.65625C45.6474 7.65625 45.3692 7.77148 45.1641 7.9766C44.959 8.18172 44.8438 8.45992 44.8438 8.75V14.2188H25.1562V8.75C25.1562 8.45992 25.041 8.18172 24.8359 7.9766C24.6308 7.77148 24.3526 7.65625 24.0625 7.65625C23.7724 7.65625 23.4942 7.77148 23.2891 7.9766C23.084 8.18172 22.9688 8.45992 22.9688 8.75V38.6613C22.9688 38.9514 23.084 39.2296 23.2891 39.4347C23.4942 39.6398 23.7724 39.7551 24.0625 39.7551ZM25.1562 31.7188V25.1562H44.8438V31.7188H25.1562ZM44.8438 16.4062V22.9688H25.1562V16.4062H44.8438ZM7.65625 45.9375C7.65625 45.6474 7.77148 45.3692 7.9766 45.1641C8.18172 44.959 8.45992 44.8438 8.75 44.8438C12.3621 44.8438 14.2516 46.1043 15.9195 47.2145C17.5328 48.2891 18.9273 49.2188 21.875 49.2188C24.8227 49.2188 26.2172 48.2891 27.8305 47.2145C29.4957 46.1043 31.3852 44.8438 34.9973 44.8438C38.6094 44.8438 40.5016 46.1043 42.1668 47.2145C43.7801 48.2891 45.1746 49.2188 48.125 49.2188C51.0754 49.2188 52.4672 48.2891 54.0805 47.2145C55.7484 46.1043 57.6352 44.8438 61.25 44.8438C61.5401 44.8438 61.8183 44.959 62.0234 45.1641C62.2285 45.3692 62.3438 45.6474 62.3438 45.9375C62.3438 46.2276 62.2285 46.5058 62.0234 46.7109C61.8183 46.916 61.5401 47.0312 61.25 47.0312C58.2996 47.0312 56.9078 47.9609 55.2945 49.0355C53.6266 50.1457 51.7398 51.4062 48.125 51.4062C44.5102 51.4062 42.6207 50.1457 40.9555 49.0355C39.3422 47.9609 37.9477 47.0312 34.9973 47.0312C32.0469 47.0312 30.6551 47.9609 29.0418 49.0355C27.3766 50.1457 25.4871 51.4062 21.875 51.4062C18.2629 51.4062 16.3734 50.1457 14.7055 49.0355C13.0922 47.9609 11.7004 47.0312 8.75 47.0312C8.45992 47.0312 8.18172 46.916 7.9766 46.7109C7.77148 46.5058 7.65625 46.2276 7.65625 45.9375ZM62.3438 56.875C62.3438 57.1651 62.2285 57.4433 62.0234 57.6484C61.8183 57.8535 61.5401 57.9688 61.25 57.9688C58.2996 57.9688 56.9078 58.8984 55.2945 59.973C53.6266 61.0832 51.7398 62.3438 48.125 62.3438C44.5102 62.3438 42.6207 61.0832 40.9555 59.973C39.3422 58.8984 37.9477 57.9688 34.9973 57.9688C32.0469 57.9688 30.6551 58.8984 29.0418 59.973C27.3766 61.0832 25.4871 62.3438 21.875 62.3438C18.2629 62.3438 16.3734 61.0832 14.7055 59.973C13.0922 58.8984 11.7004 57.9688 8.75 57.9688C8.45992 57.9688 8.18172 57.8535 7.9766 57.6484C7.77148 57.4433 7.65625 57.1651 7.65625 56.875C7.65625 56.5849 7.77148 56.3067 7.9766 56.1016C8.18172 55.8965 8.45992 55.7812 8.75 55.7812C12.3621 55.7812 14.2516 57.0418 15.9195 58.152C17.5328 59.2266 18.9273 60.1562 21.875 60.1562C24.8227 60.1562 26.2172 59.2266 27.8305 58.152C29.4957 57.0418 31.3852 55.7812 34.9973 55.7812C38.6094 55.7812 40.5016 57.0418 42.1668 58.152C43.7801 59.2266 45.1746 60.1562 48.125 60.1562C51.0754 60.1562 52.4672 59.2266 54.0805 58.152C55.7484 57.0418 57.6352 55.7812 61.25 55.7812C61.5401 55.7812 61.8183 55.8965 62.0234 56.1016C62.2285 56.3067 62.3438 56.5849 62.3438 56.875Z" fill="#FFCB24"/>
</svg>
