<svg width="70" height="70" viewBox="0 0 70 70" fill="none" xmlns="http://www.w3.org/2000/svg">
<path d="M44.357 31.902L31.232 23.152C31.0673 23.042 30.8758 22.9789 30.6779 22.9693C30.4801 22.9597 30.2834 23.0041 30.1088 23.0975C29.9342 23.191 29.7882 23.3302 29.6865 23.5001C29.5848 23.6701 29.5311 23.8644 29.5312 24.0625V41.5625C29.531 41.7606 29.5846 41.9549 29.6862 42.1249C29.7878 42.2949 29.9337 42.4342 30.1082 42.5277C30.2829 42.6213 30.4797 42.6656 30.6777 42.656C30.8756 42.6464 31.0672 42.5831 31.232 42.473L44.357 33.723C44.5071 33.6232 44.6301 33.4878 44.7152 33.329C44.8003 33.1701 44.8448 32.9927 44.8448 32.8125C44.8448 32.6323 44.8003 32.4549 44.7152 32.296C44.6301 32.1372 44.5071 32.0018 44.357 31.902ZM31.7188 39.5199V26.1051L41.7785 32.8125L31.7188 39.5199ZM56.875 12.0312H13.125C11.6746 12.0313 10.2836 12.6074 9.25801 13.633C8.23242 14.6586 7.65625 16.0496 7.65625 17.5V48.125C7.65625 49.5754 8.23242 50.9664 9.25801 51.992C10.2836 53.0176 11.6746 53.5938 13.125 53.5938H56.875C58.3254 53.5938 59.7164 53.0176 60.742 51.992C61.7676 50.9664 62.3438 49.5754 62.3438 48.125V17.5C62.3438 16.0496 61.7676 14.6586 60.742 13.633C59.7164 12.6074 58.3254 12.0313 56.875 12.0312ZM60.1562 48.125C60.1562 48.9952 59.8105 49.8298 59.1952 50.4452C58.5798 51.0605 57.7452 51.4062 56.875 51.4062H13.125C12.2548 51.4062 11.4202 51.0605 10.8048 50.4452C10.1895 49.8298 9.84375 48.9952 9.84375 48.125V17.5C9.84375 16.6298 10.1895 15.7952 10.8048 15.1798C11.4202 14.5645 12.2548 14.2188 13.125 14.2188H56.875C57.7452 14.2188 58.5798 14.5645 59.1952 15.1798C59.8105 15.7952 60.1562 16.6298 60.1562 17.5V48.125ZM44.8438 61.25C44.8438 61.5401 44.7285 61.8183 44.5234 62.0234C44.3183 62.2285 44.0401 62.3438 43.75 62.3438H26.25C25.9599 62.3438 25.6817 62.2285 25.4766 62.0234C25.2715 61.8183 25.1562 61.5401 25.1562 61.25C25.1562 60.9599 25.2715 60.6817 25.4766 60.4766C25.6817 60.2715 25.9599 60.1562 26.25 60.1562H43.75C44.0401 60.1562 44.3183 60.2715 44.5234 60.4766C44.7285 60.6817 44.8438 60.9599 44.8438 61.25Z" fill="#FFCB24"/>
</svg>
