<svg width="66" height="66" viewBox="0 0 66 66" fill="none" xmlns="http://www.w3.org/2000/svg">
<path d="M28.0894 14.5816C27.7335 14.2249 27.2932 13.9638 26.8095 13.8226C26.3257 13.6813 25.8141 13.6645 25.3221 13.7736C24.8301 13.8827 24.3737 14.1143 23.995 14.4469C23.6164 14.7794 23.3278 15.2022 23.156 15.676L9.82597 52.335C9.66175 52.786 9.60821 53.2699 9.66984 53.7459C9.73148 54.2219 9.90649 54.6762 10.1802 55.0705C10.4538 55.4649 10.8182 55.7877 11.2426 56.012C11.6669 56.2363 12.139 56.3554 12.6189 56.3594C12.9724 56.3588 13.3231 56.296 13.6549 56.174L50.3139 42.8439C50.7876 42.6722 51.2104 42.3836 51.543 42.005C51.8755 41.6263 52.1071 41.1699 52.2162 40.6779C52.3254 40.1859 52.3085 39.6743 52.1673 39.1905C52.026 38.7068 51.7649 38.2665 51.4082 37.9105L28.0894 14.5816ZM26.4314 49.3668L16.6281 39.5686L20.7389 28.2672L37.7303 45.2611L26.4314 49.3668ZM12.9744 54.2621C12.8019 54.3238 12.6154 54.3352 12.4367 54.295C12.258 54.2548 12.0943 54.1647 11.9648 54.0352C11.8353 53.9057 11.7452 53.742 11.705 53.5633C11.6648 53.3846 11.6762 53.1981 11.7379 53.0256L15.8689 41.6709L24.3291 50.1311L12.9744 54.2621ZM50.2478 40.2338C50.2128 40.3923 50.1381 40.5394 50.0306 40.6611C49.9231 40.7828 49.7864 40.8752 49.6334 40.9295L39.8428 44.4842L21.5031 26.1623L25.0578 16.3717C25.1121 16.2187 25.2045 16.082 25.3262 15.9745C25.4479 15.867 25.5949 15.7922 25.7535 15.7572C25.8245 15.7425 25.8968 15.7348 25.9693 15.7344C26.0966 15.7323 26.2229 15.7565 26.3404 15.8055C26.4579 15.8544 26.5641 15.927 26.6523 16.0187L49.9812 39.3477C50.0967 39.4619 50.1812 39.6036 50.227 39.7595C50.2727 39.9154 50.2782 40.0803 50.2428 40.2389L50.2478 40.2338ZM56.3594 6.59375C56.3594 9.05156 54.874 13.7031 49.25 13.7031C47.14 13.7031 45.6496 14.5385 44.8269 16.1889C44.4348 16.9996 44.212 17.8816 44.1719 18.7812C44.1719 19.0506 44.0649 19.3089 43.8744 19.4994C43.6839 19.6899 43.4256 19.7969 43.1562 19.7969C42.8869 19.7969 42.6285 19.6899 42.4381 19.4994C42.2476 19.3089 42.1406 19.0506 42.1406 18.7812C42.1807 17.5661 42.4766 16.373 43.009 15.2799C43.8316 13.6346 45.5836 11.6719 49.25 11.6719C54.1478 11.6719 54.3281 7.10156 54.3281 6.59375C54.3281 6.32439 54.4351 6.06606 54.6256 5.87559C54.816 5.68513 55.0744 5.57812 55.3437 5.57812C55.6131 5.57812 55.8714 5.68513 56.0619 5.87559C56.2524 6.06606 56.3594 6.32439 56.3594 6.59375ZM36.0469 10.6562V4.5625C36.0469 4.29314 36.1539 4.03481 36.3443 3.84434C36.5348 3.65388 36.7931 3.54688 37.0625 3.54688C37.3318 3.54688 37.5902 3.65388 37.7806 3.84434C37.9711 4.03481 38.0781 4.29314 38.0781 4.5625V10.6562C38.0781 10.9256 37.9711 11.1839 37.7806 11.3744C37.5902 11.5649 37.3318 11.6719 37.0625 11.6719C36.7931 11.6719 36.5348 11.5649 36.3443 11.3744C36.1539 11.1839 36.0469 10.9256 36.0469 10.6562ZM60.1248 32.2814C60.3154 32.472 60.4224 32.7305 60.4224 33C60.4224 33.2695 60.3154 33.528 60.1248 33.7186C59.9342 33.9091 59.6757 34.0162 59.4062 34.0162C59.1367 34.0162 58.8783 33.9091 58.6877 33.7186L54.6252 29.6561C54.5308 29.5617 54.456 29.4497 54.4049 29.3264C54.3538 29.2031 54.3275 29.0709 54.3275 28.9375C54.3275 28.8041 54.3538 28.6719 54.4049 28.5486C54.456 28.4253 54.5308 28.3133 54.6252 28.2189C54.7195 28.1246 54.8316 28.0497 54.9549 27.9987C55.0782 27.9476 55.2103 27.9213 55.3437 27.9213C55.4772 27.9213 55.6093 27.9476 55.7326 27.9987C55.8559 28.0497 55.9679 28.1246 56.0623 28.2189L60.1248 32.2814ZM61.7574 19.7461L55.6637 21.7773C55.5604 21.8113 55.4524 21.8284 55.3437 21.8281C55.1031 21.8276 54.8705 21.7416 54.6873 21.5855C54.5041 21.4295 54.3824 21.2134 54.3436 20.9759C54.3049 20.7384 54.3518 20.4949 54.4759 20.2887C54.6 20.0825 54.7933 19.9271 55.0213 19.8502L61.115 17.8189C61.3706 17.7338 61.6495 17.7536 61.8905 17.8741C62.1314 17.9945 62.3146 18.2058 62.3998 18.4613C62.485 18.7169 62.4652 18.9958 62.3447 19.2368C62.2242 19.4777 62.013 19.6609 61.7574 19.7461Z" fill="#FFCB24"/>
</svg>
