<svg width="22" height="22" viewBox="0 0 22 22" fill="none" xmlns="http://www.w3.org/2000/svg">
<path d="M19.5938 11C19.5936 13.0235 18.8795 14.9821 17.5772 16.5307C16.2748 18.0794 14.4677 19.1188 12.4743 19.4659C10.4808 19.8131 8.42872 19.4456 6.67955 18.4283C4.93037 17.411 3.59627 15.8091 2.91221 13.9048C2.22815 12.0004 2.23801 9.91578 2.94007 8.01798C3.64212 6.12019 4.99132 4.53099 6.75004 3.53029C8.50876 2.5296 10.5642 2.18159 12.5543 2.54757C14.5444 2.91355 16.3416 3.97003 17.6292 5.53095C17.7154 5.6354 17.7802 5.75581 17.8199 5.8853C17.8596 6.01479 17.8734 6.15083 17.8605 6.28565C17.8476 6.42048 17.8083 6.55144 17.7448 6.67107C17.6813 6.7907 17.5949 6.89664 17.4904 6.98287C17.386 7.06909 17.2656 7.13389 17.1361 7.17358C17.0066 7.21327 16.8706 7.22706 16.7357 7.21417C16.6009 7.20129 16.4699 7.16197 16.3503 7.09847C16.2307 7.03497 16.1247 6.94852 16.0385 6.84408C15.0882 5.69204 13.7718 4.90048 12.3086 4.60132C10.8455 4.30216 9.32399 4.51346 7.99773 5.20001C6.67148 5.88656 5.62057 7.00689 5.02014 8.37428C4.41971 9.74168 4.30603 11.2736 4.69804 12.7146C5.09005 14.1557 5.96409 15.4188 7.17447 16.2936C8.38486 17.1684 9.85848 17.602 11.3498 17.5221C12.841 17.4422 14.2599 16.8536 15.3699 15.8544C16.4798 14.8553 17.2138 13.506 17.4496 12.0313H11C10.7265 12.0313 10.4642 11.9226 10.2708 11.7292C10.0774 11.5358 9.96875 11.2735 9.96875 11C9.96875 10.7265 10.0774 10.4642 10.2708 10.2708C10.4642 10.0774 10.7265 9.96876 11 9.96876H18.5625C18.836 9.96876 19.0983 10.0774 19.2917 10.2708C19.4851 10.4642 19.5938 10.7265 19.5938 11Z" fill="#AAB9C7"/>
</svg>
