<svg width="25" height="25" viewBox="0 0 25 25" fill="none" xmlns="http://www.w3.org/2000/svg">
<path d="M21.417 10.6133L13.6045 2.80079C13.3115 2.50799 12.9142 2.34351 12.5 2.34351C12.0858 2.34351 11.6885 2.50799 11.3955 2.80079L3.58302 10.6133C3.43722 10.758 3.32165 10.9303 3.24302 11.12C3.16439 11.3098 3.12428 11.5133 3.12501 11.7188V21.0938C3.12501 21.301 3.20732 21.4997 3.35383 21.6462C3.50035 21.7927 3.69906 21.875 3.90626 21.875H10.1563C10.3635 21.875 10.5622 21.7927 10.7087 21.6462C10.8552 21.4997 10.9375 21.301 10.9375 21.0938V15.625H14.0625V21.0938C14.0625 21.301 14.1448 21.4997 14.2913 21.6462C14.4378 21.7927 14.6366 21.875 14.8438 21.875H21.0938C21.301 21.875 21.4997 21.7927 21.6462 21.6462C21.7927 21.4997 21.875 21.301 21.875 21.0938V11.7188C21.8757 11.5133 21.8356 11.3098 21.757 11.12C21.6784 10.9303 21.5628 10.758 21.417 10.6133ZM20.3125 20.3125H15.625V14.8438C15.625 14.6366 15.5427 14.4378 15.3962 14.2913C15.2497 14.1448 15.051 14.0625 14.8438 14.0625H10.1563C9.94906 14.0625 9.75035 14.1448 9.60383 14.2913C9.45732 14.4378 9.37501 14.6366 9.37501 14.8438V20.3125H4.68751V11.7188L12.5 3.90626L20.3125 11.7188V20.3125Z" fill="#0E385D"/>
</svg>
