<svg width="50" height="50" viewBox="0 0 50 50" fill="none" xmlns="http://www.w3.org/2000/svg">
<path d="M42.9804 16.4063C45.1146 20.8654 45.5156 25.9584 44.1058 30.6966C42.696 35.4348 39.5758 39.48 35.3511 42.0471C31.1264 44.6141 26.0985 45.5198 21.2436 44.5882C16.3887 43.6566 12.0532 40.9543 9.07866 37.0058C6.10416 33.0573 4.70295 28.1445 5.14704 23.221C5.59114 18.2975 7.84886 13.7147 11.4819 10.3622C15.1149 7.00975 19.8641 5.12685 24.8073 5.07906C29.7506 5.03126 34.5352 6.82199 38.2324 10.1036L42.9199 5.41607C43.1404 5.19938 43.4376 5.0786 43.7467 5.08004C44.0559 5.08148 44.3519 5.20502 44.5704 5.42375C44.7889 5.64248 44.9121 5.93868 44.9132 6.24783C44.9142 6.55698 44.7931 6.85403 44.5762 7.07428L25.8262 25.8243C25.7176 25.9345 25.5883 26.0221 25.4457 26.0821C25.3031 26.1421 25.1501 26.1732 24.9954 26.1738C24.8407 26.1743 24.6874 26.1442 24.5444 26.0852C24.4014 26.0262 24.2715 25.9395 24.1622 25.8301C24.0528 25.7206 23.9663 25.5906 23.9075 25.4475C23.8486 25.3045 23.8187 25.1511 23.8194 24.9965C23.8202 24.8418 23.8515 24.6887 23.9116 24.5462C23.9718 24.4037 24.0596 24.2745 24.1699 24.1661L29.9101 18.4239C28.4145 17.3056 26.5821 16.731 24.7157 16.7952C22.8494 16.8594 21.0608 17.5585 19.6455 18.7769C18.2303 19.9954 17.2732 21.6603 16.9324 23.4964C16.5915 25.3325 16.8874 27.2299 17.7711 28.8751C18.6548 30.5203 20.0733 31.8147 21.7924 32.5444C23.5114 33.2741 25.4279 33.3955 27.2252 32.8884C29.0225 32.3813 30.593 31.2761 31.6771 29.7555C32.7612 28.2349 33.294 26.3899 33.1875 24.5254C33.1699 24.2146 33.2764 23.9096 33.4838 23.6774C33.6911 23.4451 33.9821 23.3048 34.2929 23.2872C34.6038 23.2696 34.9088 23.3761 35.141 23.5834C35.3733 23.7908 35.5136 24.0818 35.5312 24.3926C35.6718 26.8044 34.9802 29.1914 33.572 31.1543C32.1638 33.1173 30.1243 34.5374 27.7947 35.177C25.465 35.8166 22.9864 35.6371 20.7732 34.6684C18.5601 33.6997 16.7466 32.0005 15.6359 29.8551C14.5253 27.7097 14.1849 25.248 14.6716 22.8816C15.1583 20.5153 16.4427 18.3878 18.3099 16.8548C20.1771 15.3219 22.514 14.4764 24.9298 14.4599C27.3456 14.4433 29.6939 15.2566 31.582 16.7637L36.5703 11.7735C33.2928 8.9156 29.0715 7.37539 24.7237 7.45106C20.3758 7.52672 16.2107 9.21288 13.0347 12.1831C9.8586 15.1533 7.89755 19.1963 7.53115 23.5293C7.16475 27.8624 8.41907 32.1772 11.0513 35.6386C13.6835 39.0999 17.5063 41.4615 21.7797 42.2662C26.0531 43.0709 30.4731 42.2614 34.184 39.9944C37.8948 37.7274 40.6325 34.1643 41.8671 29.9947C43.1018 25.8252 42.7454 21.3458 40.8672 17.4239C40.8004 17.2851 40.7615 17.1346 40.7529 16.9808C40.7443 16.827 40.766 16.6731 40.8169 16.5277C40.8678 16.3823 40.9468 16.2484 41.0494 16.1336C41.152 16.0188 41.2763 15.9253 41.415 15.8585C41.5538 15.7916 41.7043 15.7528 41.8581 15.7442C42.0119 15.7356 42.1658 15.7573 42.3112 15.8082C42.4566 15.859 42.5905 15.9381 42.7053 16.0407C42.8201 16.1433 42.9136 16.2675 42.9804 16.4063Z" fill="#FFCB24"/>
</svg>
