<svg width="20" height="21" viewBox="0 0 20 21" fill="none" xmlns="http://www.w3.org/2000/svg">
<path d="M17.7586 6.23201L14.268 2.74061C14.1519 2.6245 14.0141 2.5324 13.8624 2.46957C13.7107 2.40673 13.5482 2.37439 13.384 2.37439C13.2198 2.37439 13.0572 2.40673 12.9056 2.46957C12.7539 2.5324 12.6161 2.6245 12.5 2.74061L2.86641 12.375C2.74983 12.4906 2.65741 12.6283 2.59451 12.78C2.5316 12.9317 2.49948 13.0944 2.50001 13.2586V16.75C2.50001 17.0815 2.6317 17.3994 2.86612 17.6339C3.10054 17.8683 3.41849 18 3.75001 18H7.24141C7.40563 18.0005 7.5683 17.9684 7.71999 17.9055C7.87168 17.8426 8.00935 17.7502 8.12501 17.6336L17.7586 7.99998C17.8747 7.88391 17.9668 7.74609 18.0296 7.59442C18.0925 7.44274 18.1248 7.28017 18.1248 7.116C18.1248 6.95182 18.0925 6.78925 18.0296 6.63758C17.9668 6.4859 17.8747 6.34809 17.7586 6.23201ZM4.0086 13L10.625 6.38358L11.9289 7.68748L5.31251 14.3031L4.0086 13ZM3.75001 14.5086L5.99141 16.75H3.75001V14.5086ZM7.50001 16.4914L6.1961 15.1875L12.8125 8.57108L14.1164 9.87498L7.50001 16.4914ZM15 8.99139L11.5086 5.49998L13.3836 3.62498L16.875 7.11561L15 8.99139Z" fill="white"/>
</svg>
