<svg width="25" height="25" viewBox="0 0 25 25" fill="none" xmlns="http://www.w3.org/2000/svg">
<path d="M23.9065 14.6875C23.8245 14.7491 23.7311 14.7939 23.6317 14.8193C23.5323 14.8448 23.4289 14.8504 23.3273 14.8359C23.2257 14.8214 23.128 14.787 23.0398 14.7348C22.9515 14.6825 22.8744 14.6133 22.8128 14.5313C22.3419 13.8983 21.729 13.3848 21.0234 13.032C20.3178 12.6792 19.5392 12.497 18.7503 12.5C18.5967 12.5 18.4465 12.4547 18.3184 12.3698C18.1904 12.2848 18.0903 12.164 18.0306 12.0225C17.99 11.9264 17.9691 11.8231 17.9691 11.7188C17.9691 11.6144 17.99 11.5112 18.0306 11.4151C18.0903 11.2735 18.1904 11.1527 18.3184 11.0678C18.4465 10.9828 18.5967 10.9375 18.7503 10.9375C19.1886 10.9375 19.6182 10.8145 19.9902 10.5826C20.3621 10.3506 20.6616 10.019 20.8546 9.62544C21.0475 9.23184 21.1262 8.79202 21.0817 8.35593C21.0373 7.91984 20.8714 7.50497 20.6029 7.15843C20.3345 6.8119 19.9742 6.54759 19.5631 6.39554C19.152 6.24348 18.7064 6.20977 18.2771 6.29824C17.8478 6.3867 17.4518 6.5938 17.1343 6.896C16.8168 7.1982 16.5904 7.58339 16.4808 8.00782C16.4551 8.10721 16.4101 8.20058 16.3484 8.28258C16.2867 8.36459 16.2094 8.43364 16.121 8.48578C16.0326 8.53792 15.9348 8.57214 15.8331 8.58648C15.7315 8.60082 15.628 8.595 15.5286 8.56935C15.4292 8.5437 15.3359 8.49872 15.2539 8.43699C15.1718 8.37526 15.1028 8.29798 15.0507 8.20957C14.9985 8.12115 14.9643 8.02333 14.95 7.92169C14.9356 7.82006 14.9414 7.71659 14.9671 7.6172C15.1192 7.02864 15.4066 6.4837 15.8063 6.02575C16.2061 5.56779 16.7072 5.20946 17.2699 4.97926C17.8325 4.74906 18.4411 4.65335 19.0472 4.69975C19.6533 4.74614 20.2403 4.93336 20.7613 5.24651C21.2823 5.55965 21.7231 5.99008 22.0485 6.50354C22.3739 7.01701 22.575 7.59933 22.6358 8.20419C22.6965 8.80904 22.6153 9.41973 22.3985 9.98766C22.1817 10.5556 21.8354 11.0651 21.387 11.4756C22.4493 11.9356 23.3728 12.6655 24.0657 13.5928C24.1273 13.6751 24.172 13.7687 24.1973 13.8683C24.2226 13.9679 24.228 14.0715 24.2133 14.1732C24.1985 14.2749 24.1638 14.3726 24.1111 14.4609C24.0585 14.5492 23.989 14.6262 23.9065 14.6875ZM18.6448 20.7031C18.7014 20.7921 18.7393 20.8915 18.7564 20.9955C18.7735 21.0994 18.7694 21.2058 18.7443 21.3081C18.7193 21.4105 18.6738 21.5067 18.6105 21.591C18.5473 21.6753 18.4677 21.7459 18.3765 21.7986C18.2853 21.8514 18.1843 21.8851 18.0797 21.8978C17.9751 21.9105 17.869 21.9019 17.7678 21.8726C17.6667 21.8432 17.5724 21.7937 17.4909 21.727C17.4093 21.6603 17.3421 21.5777 17.2933 21.4844C16.8011 20.6511 16.1002 19.9604 15.2597 19.4807C14.4192 19.0009 13.4681 18.7486 12.5003 18.7486C11.5325 18.7486 10.5814 19.0009 9.7409 19.4807C8.90038 19.9604 8.19947 20.6511 7.70733 21.4844C7.65849 21.5777 7.59127 21.6603 7.50971 21.727C7.42815 21.7937 7.33394 21.8432 7.23275 21.8726C7.13155 21.9019 7.02547 21.9105 6.92087 21.8978C6.81627 21.8851 6.71533 21.8514 6.6241 21.7986C6.53288 21.7459 6.45327 21.6753 6.39005 21.591C6.32683 21.5067 6.28132 21.4105 6.25626 21.3081C6.23119 21.2058 6.22708 21.0994 6.24418 20.9955C6.26128 20.8915 6.29924 20.7921 6.35577 20.7031C7.11319 19.4017 8.26806 18.3776 9.65069 17.7813C8.87269 17.1856 8.30091 16.3611 8.01573 15.4237C7.73054 14.4862 7.74629 13.483 8.06076 12.555C8.37523 11.627 8.9726 10.8208 9.76892 10.2499C10.5652 9.67894 11.5204 9.37188 12.5003 9.37188C13.4801 9.37188 14.4354 9.67894 15.2317 10.2499C16.028 10.8208 16.6254 11.627 16.9398 12.555C17.2543 13.483 17.27 14.4862 16.9849 15.4237C16.6997 16.3611 16.1279 17.1856 15.3499 17.7813C16.7325 18.3776 17.8874 19.4017 18.6448 20.7031ZM12.5003 17.1875C13.1184 17.1875 13.7225 17.0042 14.2365 16.6609C14.7504 16.3175 15.1509 15.8294 15.3874 15.2584C15.6239 14.6874 15.6858 14.059 15.5653 13.4529C15.4447 12.8467 15.147 12.2898 14.71 11.8528C14.273 11.4158 13.7161 11.1181 13.11 10.9976C12.5038 10.877 11.8754 10.9389 11.3044 11.1754C10.7334 11.4119 10.2453 11.8125 9.90195 12.3264C9.55857 12.8403 9.3753 13.4444 9.3753 14.0625C9.3753 14.8913 9.70454 15.6862 10.2906 16.2722C10.8766 16.8583 11.6715 17.1875 12.5003 17.1875ZM7.03155 11.7188C7.03155 11.5116 6.94924 11.3128 6.80272 11.1663C6.65621 11.0198 6.4575 10.9375 6.2503 10.9375C5.81194 10.9375 5.38239 10.8145 5.01042 10.5826C4.63845 10.3506 4.33899 10.019 4.14603 9.62544C3.95307 9.23184 3.87437 8.79202 3.91885 8.35593C3.96333 7.91984 4.12922 7.50497 4.39767 7.15843C4.66612 6.8119 5.02637 6.54759 5.4375 6.39554C5.84864 6.24348 6.29417 6.20977 6.72351 6.29824C7.15284 6.3867 7.54876 6.5938 7.86629 6.896C8.18382 7.1982 8.41024 7.58339 8.51983 8.00782C8.57163 8.20855 8.70104 8.38048 8.87961 8.48578C9.05817 8.59109 9.27125 8.62115 9.47198 8.56935C9.6727 8.51755 9.84463 8.38813 9.94993 8.20957C10.0552 8.03101 10.0853 7.81792 10.0335 7.6172C9.88139 7.02864 9.59402 6.4837 9.19425 6.02575C8.79448 5.56779 8.29335 5.20946 7.73072 4.97926C7.16809 4.74906 6.5595 4.65335 5.95338 4.69975C5.34726 4.74614 4.76032 4.93336 4.23929 5.24651C3.71825 5.55965 3.27749 5.99008 2.95207 6.50354C2.62666 7.01701 2.42557 7.59933 2.36482 8.20419C2.30406 8.80904 2.38531 9.41973 2.6021 9.98766C2.81889 10.5556 3.16523 11.0651 3.61358 11.4756C2.55233 11.936 1.6299 12.6659 0.937796 13.5928C0.813347 13.7585 0.759842 13.967 0.789053 14.1722C0.818264 14.3774 0.927798 14.5626 1.09356 14.687C1.25932 14.8115 1.46773 14.865 1.67294 14.8358C1.87815 14.8066 2.06335 14.697 2.1878 14.5313C2.65868 13.8983 3.2716 13.3848 3.97721 13.032C4.68282 12.6792 5.46141 12.497 6.2503 12.5C6.4575 12.5 6.65621 12.4177 6.80272 12.2712C6.94924 12.1247 7.03155 11.926 7.03155 11.7188Z" fill="#0E385D"/>
</svg>
