<svg width="17" height="17" viewBox="0 0 17 17" fill="none" xmlns="http://www.w3.org/2000/svg">
<path d="M16.1156 12.6781C15.9763 13.7367 15.4564 14.7085 14.6531 15.4118C13.8497 16.1151 12.8177 16.5019 11.75 16.5C5.54688 16.5 0.500007 11.4531 0.500007 5.25C0.498093 4.18226 0.884919 3.15033 1.58824 2.34695C2.29155 1.54357 3.26326 1.02368 4.32188 0.884373C4.58958 0.851687 4.86067 0.906453 5.09468 1.0405C5.3287 1.17454 5.51309 1.38067 5.62032 1.62812L7.27032 5.31172V5.32109C7.35242 5.51051 7.38633 5.71731 7.36901 5.92303C7.3517 6.12874 7.2837 6.32697 7.1711 6.5C7.15704 6.52109 7.14219 6.54062 7.12657 6.56015L5.50001 8.48828C6.08516 9.67734 7.32891 10.9102 8.5336 11.4969L10.4352 9.8789C10.4538 9.86321 10.4734 9.8486 10.4938 9.83515C10.6666 9.71984 10.8655 9.64946 11.0725 9.63036C11.2794 9.61126 11.4878 9.64406 11.6789 9.72578L11.6891 9.73047L15.3695 11.3797C15.6174 11.4865 15.8241 11.6708 15.9585 11.9048C16.093 12.1389 16.1481 12.4102 16.1156 12.6781Z" fill="#0E385D"/>
</svg>
