<svg width="100" height="100" viewBox="0 0 100 100" fill="none" xmlns="http://www.w3.org/2000/svg">
<g opacity="0.2">
<path d="M64.583 70.833C59.9808 70.8328 56.25 67.1023 56.25 62.5V47.8008C56.25 46.5072 56.5514 45.2313 57.1299 44.0742L63.0381 32.2568C63.985 30.363 65.9208 29.1671 68.0381 29.167C72.1937 29.167 74.8965 33.5399 73.0381 37.2568L68.75 45.833H72.917C77.5192 45.8332 81.25 49.5647 81.25 54.167V62.5C81.25 67.1023 77.5192 70.8328 72.917 70.833H64.583ZM27.083 70.833C22.4808 70.8328 18.75 67.1023 18.75 62.5V47.8008C18.75 46.5072 19.0514 45.2313 19.6299 44.0742L25.5381 32.2568C26.485 30.363 28.4207 29.1671 30.5381 29.167C34.6937 29.167 37.3965 33.5399 35.5381 37.2568L31.25 45.833H35.417C40.0192 45.8332 43.75 49.5647 43.75 54.167V62.5C43.75 67.1023 40.0192 70.8328 35.417 70.833H27.083Z" fill="#4B4B4D"/>
</g>
</svg>
