<svg width="25" height="25" viewBox="0 0 25 25" fill="none" xmlns="http://www.w3.org/2000/svg">
<path d="M24.0067 11.8779C23.907 11.7028 23.7735 11.5494 23.6139 11.4265C23.4542 11.3036 23.2717 11.2137 23.077 11.1621C22.3705 10.9803 21.6405 10.9072 20.912 10.9453C21.3026 9.00684 21.0096 7.47363 20.7108 6.56445C20.5917 6.19098 20.3377 5.87525 19.9985 5.67882C19.6593 5.48239 19.259 5.41934 18.8758 5.50195C17.8821 5.72327 16.9372 6.1244 16.0877 6.68555C15.4656 5.41469 14.5598 4.30376 13.4403 3.43848C13.169 3.235 12.839 3.125 12.4999 3.125C12.1607 3.125 11.8307 3.235 11.5594 3.43848C10.4396 4.3035 9.53378 5.4145 8.91196 6.68555C8.0625 6.1244 7.1176 5.72327 6.12387 5.50195C5.74067 5.41934 5.34044 5.48239 5.0012 5.67882C4.66196 5.87525 4.40803 6.19098 4.28891 6.56445C3.99594 7.47363 3.70298 9.00586 4.08774 10.9453C3.35924 10.9072 2.62917 10.9803 1.9227 11.1621C1.72796 11.2137 1.54545 11.3036 1.38583 11.4265C1.22621 11.5494 1.09267 11.7028 0.993015 11.8779C0.888723 12.0573 0.821194 12.2556 0.794367 12.4613C0.767541 12.6671 0.781953 12.8761 0.836765 13.0762C1.16782 14.3037 2.18442 16.6387 5.26352 18.4785C8.34262 20.3184 11.0477 20.3125 12.5047 20.3125C13.9618 20.3125 16.6717 20.3125 19.7313 18.4785C22.8104 16.6387 23.827 14.3037 24.1581 13.0762C24.2136 12.8764 24.2288 12.6676 24.2028 12.4618C24.1768 12.2561 24.1102 12.0576 24.0067 11.8779ZM5.77524 7.04492C5.77641 7.04007 5.77938 7.03586 5.78356 7.03313C5.78774 7.03041 5.7928 7.02939 5.7977 7.03027C6.70638 7.23554 7.56389 7.62327 8.31821 8.16992C7.97475 9.29351 7.80418 10.4628 7.81235 11.6377C7.81235 13.4678 8.18052 14.958 8.702 16.1572C7.96064 15.4152 7.31916 14.5797 6.7938 13.6719C5.03403 10.6074 5.40024 8.20312 5.77524 7.04492ZM6.06821 17.1377C3.46372 15.583 2.61899 13.6768 2.3436 12.666C3.06217 12.4891 3.80782 12.4503 4.54087 12.5518C4.78559 13.2073 5.08448 13.8413 5.43442 14.4473C6.29366 15.9286 7.41934 17.2384 8.75473 18.3105C7.81045 18.0391 6.90591 17.6447 6.0643 17.1377H6.06821ZM12.4999 18.5937C11.5887 17.916 9.37485 15.8369 9.37485 11.6377C9.37485 7.49023 11.5604 5.39453 12.4999 4.6875C13.4393 5.39648 15.6249 7.49219 15.6249 11.6396C15.6249 15.8369 13.411 17.916 12.4999 18.5937ZM16.6815 8.16992C17.4359 7.62361 18.2934 7.23622 19.202 7.03125C19.2069 7.03036 19.212 7.03139 19.2161 7.03411C19.2203 7.03683 19.2233 7.04105 19.2245 7.0459C19.5995 8.20313 19.9657 10.6074 18.2059 13.6719C17.681 14.5809 17.0395 15.4174 16.2977 16.1602C16.8192 14.9629 17.1874 13.4707 17.1874 11.6406C17.1958 10.4648 17.0252 9.29445 16.6815 8.16992ZM22.6561 12.668C22.3856 13.6689 21.5428 15.5791 18.9364 17.1377C18.0947 17.6444 17.1902 18.0384 16.2459 18.3096C17.5813 17.2374 18.707 15.9277 19.5663 14.4463C19.9162 13.8403 20.2151 13.2063 20.4598 12.5508C21.1926 12.4498 21.938 12.4892 22.6561 12.667V12.668Z" fill="#0E385D"/>
</svg>
