<svg width="25" height="25" viewBox="0 0 25 25" fill="none" xmlns="http://www.w3.org/2000/svg">
<path d="M21.0938 6.24995H14.3857L17.7402 2.89643C17.8868 2.74984 17.9692 2.55101 17.9692 2.3437C17.9692 2.13638 17.8868 1.93756 17.7402 1.79096C17.5936 1.64437 17.3948 1.56201 17.1875 1.56201C16.9802 1.56201 16.7814 1.64437 16.6348 1.79096L12.5 5.9267L8.36523 1.79096C8.29265 1.71838 8.20648 1.6608 8.11164 1.62151C8.0168 1.58223 7.91515 1.56201 7.8125 1.56201C7.70985 1.56201 7.6082 1.58223 7.51336 1.62151C7.41852 1.6608 7.33235 1.71838 7.25977 1.79096C7.11317 1.93756 7.03082 2.13638 7.03082 2.3437C7.03082 2.55101 7.11317 2.74984 7.25977 2.89643L10.6143 6.24995H3.90625C3.49185 6.24995 3.09442 6.41457 2.8014 6.70759C2.50837 7.00062 2.34375 7.39805 2.34375 7.81245V19.5312C2.34375 19.9456 2.50837 20.343 2.8014 20.6361C3.09442 20.9291 3.49185 21.0937 3.90625 21.0937H21.0938C21.5082 21.0937 21.9056 20.9291 22.1986 20.6361C22.4916 20.343 22.6562 19.9456 22.6562 19.5312V7.81245C22.6562 7.39805 22.4916 7.00062 22.1986 6.70759C21.9056 6.41457 21.5082 6.24995 21.0938 6.24995ZM21.0938 19.5312H3.90625V7.81245H21.0938V19.5312Z" fill="#0E385D"/>
</svg>
