<svg width="18" height="16" viewBox="0 0 18 16" fill="none" xmlns="http://www.w3.org/2000/svg">
<path d="M12.2861 0C10.1822 0 8.47671 1.79086 8.47671 4C8.47671 4.33382 8.51565 4.65809 8.58903 4.96808C6.56611 4.96808 3.51914 4.55908 0.974438 2.00961C0.636055 1.67059 0.0120846 1.89726 0.035556 2.37567C0.412681 10.0627 3.70477 12.3049 5.4001 12.4444C4.30535 13.5257 2.7151 14.3791 1.11489 14.7622C0.692564 14.8633 0.588236 15.3256 1.0012 15.4599C2.14623 15.8323 3.78516 15.9758 4.66735 16C10.9082 16 15.9806 10.7471 16.0935 4.22229C16.9129 3.68945 17.4377 2.5325 17.7326 1.71291C17.8044 1.5133 17.4773 1.28073 17.2815 1.36226C16.6694 1.61708 15.8923 1.67749 15.2304 1.46181C14.5318 0.569266 13.4722 0 12.2861 0Z" fill="#AAB9C7"/>
</svg>
