<svg width="50" height="50" viewBox="0 0 50 50" fill="none" xmlns="http://www.w3.org/2000/svg">
<path d="M47.945 24.5254C47.8786 24.373 46.2536 20.7695 42.6247 17.1406C39.2575 13.7773 33.4724 9.76562 24.9997 9.76562C16.5271 9.76562 10.7419 13.7773 7.37471 17.1406C3.74581 20.7695 2.12081 24.3672 2.0544 24.5254C1.98763 24.6754 1.95312 24.8378 1.95312 25.002C1.95312 25.1661 1.98763 25.3285 2.0544 25.4785C2.12081 25.6289 3.74581 29.2324 7.37471 32.8613C10.7419 36.2246 16.5271 40.2344 24.9997 40.2344C33.4724 40.2344 39.2575 36.2246 42.6247 32.8613C46.2536 29.2324 47.8786 25.6348 47.945 25.4785C48.0118 25.3285 48.0463 25.1661 48.0463 25.002C48.0463 24.8378 48.0118 24.6754 47.945 24.5254ZM24.9997 37.8906C18.8708 37.8906 13.5192 35.6602 9.09151 31.2637C7.23541 29.419 5.66475 27.3079 4.43136 25C5.6644 22.6924 7.2351 20.5819 9.09151 18.7383C13.5192 14.3398 18.8708 12.1094 24.9997 12.1094C31.1286 12.1094 36.4802 14.3398 40.9079 18.7383C42.7643 20.5819 44.335 22.6924 45.5681 25C44.3239 27.3848 38.0857 37.8906 24.9997 37.8906ZM24.9997 16.0156C23.2228 16.0156 21.4857 16.5425 20.0083 17.5298C18.5308 18.517 17.3792 19.9201 16.6992 21.5618C16.0192 23.2035 15.8413 25.01 16.188 26.7528C16.5346 28.4956 17.3903 30.0964 18.6468 31.3529C19.9033 32.6094 21.5042 33.4651 23.247 33.8117C24.9897 34.1584 26.7962 33.9805 28.4379 33.3005C30.0796 32.6205 31.4827 31.4689 32.4699 29.9915C33.4572 28.514 33.9841 26.7769 33.9841 25C33.981 22.6181 33.0334 20.3347 31.3492 18.6505C29.665 16.9663 27.3816 16.0187 24.9997 16.0156ZM24.9997 31.6406C23.6863 31.6406 22.4024 31.2512 21.3104 30.5215C20.2183 29.7918 19.3672 28.7547 18.8646 27.5413C18.362 26.3278 18.2305 24.9926 18.4867 23.7045C18.7429 22.4163 19.3754 21.2331 20.3041 20.3044C21.2328 19.3757 22.416 18.7432 23.7042 18.487C24.9923 18.2307 26.3276 18.3622 27.541 18.8649C28.7544 19.3675 29.7915 20.2186 30.5212 21.3107C31.2509 22.4027 31.6403 23.6866 31.6403 25C31.6403 26.7612 30.9407 28.4503 29.6953 29.6956C28.45 30.941 26.7609 31.6406 24.9997 31.6406Z" fill="#FFCB24"/>
</svg>
